M48
; DRILL file {KiCad (6.0.11)} date Sat Apr  1 22:46:37 2023
; FORMAT={-:-/ absolute / metric / decimal}
; #@! TF.CreationDate,2023-04-01T22:46:37+02:00
; #@! TF.GenerationSoftware,Kicad,Pcbnew,(6.0.11)
; #@! TF.FileFunction,Plated,1,2,PTH
FMAT,2
METRIC
; #@! TA.AperFunction,Plated,PTH,ComponentDrill
T1C0.730
; #@! TA.AperFunction,Plated,PTH,ComponentDrill
T2C0.762
; #@! TA.AperFunction,Plated,PTH,ComponentDrill
T3C0.800
; #@! TA.AperFunction,Plated,PTH,ComponentDrill
T4C0.813
; #@! TA.AperFunction,Plated,PTH,ComponentDrill
T5C0.900
; #@! TA.AperFunction,Plated,PTH,ComponentDrill
T6C1.000
; #@! TA.AperFunction,Plated,PTH,ComponentDrill
T7C1.020
; #@! TA.AperFunction,Plated,PTH,ComponentDrill
T8C1.290
; #@! TA.AperFunction,Plated,PTH,ComponentDrill
T9C1.300
; #@! TA.AperFunction,Plated,PTH,ComponentDrill
T10C1.320
%
G90
G05
T1
X93.39Y-27.686
X101.682Y-27.686
T2
X30.326Y-36.53
X30.326Y-47.13
X39.076Y-36.75
X39.076Y-39.29
X39.076Y-41.83
X39.076Y-44.37
X39.076Y-46.91
T3
X76.454Y-42.418
X76.454Y-52.578
X83.566Y-40.386
X83.566Y-50.546
X89.149Y-43.678
X89.149Y-51.298
X91.689Y-43.678
X91.689Y-51.298
X105.156Y-33.528
X105.156Y-43.688
T4
X90.678Y-30.988
X90.678Y-33.528
X90.678Y-36.068
T5
X77.478Y-33.766
X79.248Y-33.766
X81.018Y-33.766
T6
X52.388Y-55.812
X54.928Y-55.812
X57.468Y-55.812
X60.008Y-55.812
T7
X26.67Y-67.31
X26.67Y-85.09
X29.21Y-67.31
X29.21Y-85.09
X31.75Y-67.31
X31.75Y-85.09
X34.29Y-67.31
X34.29Y-85.09
X36.83Y-67.31
X36.83Y-85.09
X39.37Y-67.31
X39.37Y-85.09
X41.91Y-67.31
X41.91Y-85.09
X44.45Y-67.31
X44.45Y-85.09
X46.99Y-67.31
X46.99Y-85.09
X49.53Y-67.31
X49.53Y-85.09
X52.07Y-67.31
X52.07Y-85.09
X54.61Y-67.31
X54.61Y-85.09
X56.4Y-70.536
X56.4Y-73.076
X56.4Y-75.616
X57.15Y-67.31
X57.15Y-85.09
X59.69Y-67.31
X59.69Y-85.09
X62.23Y-67.31
X62.23Y-85.09
X64.77Y-67.31
X64.77Y-85.09
X67.31Y-67.31
X67.31Y-85.09
X69.85Y-67.31
X69.85Y-85.09
X72.39Y-67.31
X72.39Y-85.09
X74.93Y-67.31
X74.93Y-85.09
T8
X90.17Y-58.702
T9
X98.298Y-81.59
X98.298Y-85.09
X98.298Y-88.59
T10
X84.17Y-60.702
X84.17Y-72.902
X96.17Y-60.702
X96.17Y-72.902
T0
M30
