%TF.GenerationSoftware,KiCad,Pcbnew,(6.0.11)*%
%TF.CreationDate,2023-04-01T22:46:31+02:00*%
%TF.ProjectId,thermostat,74686572-6d6f-4737-9461-742e6b696361,v01*%
%TF.SameCoordinates,Original*%
%TF.FileFunction,Legend,Top*%
%TF.FilePolarity,Positive*%
%FSLAX46Y46*%
G04 Gerber Fmt 4.6, Leading zero omitted, Abs format (unit mm)*
G04 Created by KiCad (PCBNEW (6.0.11)) date 2023-04-01 22:46:31*
%MOMM*%
%LPD*%
G01*
G04 APERTURE LIST*
%ADD10C,0.150000*%
%ADD11C,0.120000*%
%ADD12C,0.127000*%
%ADD13C,0.200000*%
%ADD14C,0.152400*%
%ADD15C,0.300000*%
%ADD16C,0.400000*%
G04 APERTURE END LIST*
D10*
X103354285Y-85447142D02*
X103306666Y-85494761D01*
X103163809Y-85542380D01*
X103068571Y-85542380D01*
X102925714Y-85494761D01*
X102830476Y-85399523D01*
X102782857Y-85304285D01*
X102735238Y-85113809D01*
X102735238Y-84970952D01*
X102782857Y-84780476D01*
X102830476Y-84685238D01*
X102925714Y-84590000D01*
X103068571Y-84542380D01*
X103163809Y-84542380D01*
X103306666Y-84590000D01*
X103354285Y-84637619D01*
X103973333Y-84542380D02*
X104163809Y-84542380D01*
X104259047Y-84590000D01*
X104354285Y-84685238D01*
X104401904Y-84875714D01*
X104401904Y-85209047D01*
X104354285Y-85399523D01*
X104259047Y-85494761D01*
X104163809Y-85542380D01*
X103973333Y-85542380D01*
X103878095Y-85494761D01*
X103782857Y-85399523D01*
X103735238Y-85209047D01*
X103735238Y-84875714D01*
X103782857Y-84685238D01*
X103878095Y-84590000D01*
X103973333Y-84542380D01*
X104830476Y-85542380D02*
X104830476Y-84542380D01*
X105163809Y-85256666D01*
X105497142Y-84542380D01*
X105497142Y-85542380D01*
X99774476Y-92400380D02*
X99774476Y-91400380D01*
X100345904Y-92400380D01*
X100345904Y-91400380D01*
X101012571Y-91400380D02*
X101203047Y-91400380D01*
X101298285Y-91448000D01*
X101393523Y-91543238D01*
X101441142Y-91733714D01*
X101441142Y-92067047D01*
X101393523Y-92257523D01*
X101298285Y-92352761D01*
X101203047Y-92400380D01*
X101012571Y-92400380D01*
X100917333Y-92352761D01*
X100822095Y-92257523D01*
X100774476Y-92067047D01*
X100774476Y-91733714D01*
X100822095Y-91543238D01*
X100917333Y-91448000D01*
X101012571Y-91400380D01*
X99798285Y-79192380D02*
X99798285Y-78192380D01*
X100369714Y-79192380D01*
X100369714Y-78192380D01*
X101417333Y-79097142D02*
X101369714Y-79144761D01*
X101226857Y-79192380D01*
X101131619Y-79192380D01*
X100988761Y-79144761D01*
X100893523Y-79049523D01*
X100845904Y-78954285D01*
X100798285Y-78763809D01*
X100798285Y-78620952D01*
X100845904Y-78430476D01*
X100893523Y-78335238D01*
X100988761Y-78240000D01*
X101131619Y-78192380D01*
X101226857Y-78192380D01*
X101369714Y-78240000D01*
X101417333Y-78287619D01*
%TO.C,Brd1*%
X52935333Y-40822571D02*
X53078190Y-40870190D01*
X53125809Y-40917809D01*
X53173428Y-41013047D01*
X53173428Y-41155904D01*
X53125809Y-41251142D01*
X53078190Y-41298761D01*
X52982952Y-41346380D01*
X52602000Y-41346380D01*
X52602000Y-40346380D01*
X52935333Y-40346380D01*
X53030571Y-40394000D01*
X53078190Y-40441619D01*
X53125809Y-40536857D01*
X53125809Y-40632095D01*
X53078190Y-40727333D01*
X53030571Y-40774952D01*
X52935333Y-40822571D01*
X52602000Y-40822571D01*
X53602000Y-41346380D02*
X53602000Y-40679714D01*
X53602000Y-40870190D02*
X53649619Y-40774952D01*
X53697238Y-40727333D01*
X53792476Y-40679714D01*
X53887714Y-40679714D01*
X54649619Y-41346380D02*
X54649619Y-40346380D01*
X54649619Y-41298761D02*
X54554380Y-41346380D01*
X54363904Y-41346380D01*
X54268666Y-41298761D01*
X54221047Y-41251142D01*
X54173428Y-41155904D01*
X54173428Y-40870190D01*
X54221047Y-40774952D01*
X54268666Y-40727333D01*
X54363904Y-40679714D01*
X54554380Y-40679714D01*
X54649619Y-40727333D01*
X55649619Y-41346380D02*
X55078190Y-41346380D01*
X55363904Y-41346380D02*
X55363904Y-40346380D01*
X55268666Y-40489238D01*
X55173428Y-40584476D01*
X55078190Y-40632095D01*
%TO.C,D1*%
X96543829Y-28138427D02*
X96543829Y-27138325D01*
X96781949Y-27138325D01*
X96924820Y-27185949D01*
X97020068Y-27281196D01*
X97067692Y-27376444D01*
X97115316Y-27566940D01*
X97115316Y-27709811D01*
X97067692Y-27900307D01*
X97020068Y-27995555D01*
X96924820Y-28090803D01*
X96781949Y-28138427D01*
X96543829Y-28138427D01*
X98067794Y-28138427D02*
X97496307Y-28138427D01*
X97782051Y-28138427D02*
X97782051Y-27138325D01*
X97686803Y-27281196D01*
X97591555Y-27376444D01*
X97496307Y-27424068D01*
%TO.C,T1*%
X86441309Y-33655086D02*
X86441309Y-33082839D01*
X87442742Y-33368962D02*
X86441309Y-33368962D01*
X87442742Y-32224468D02*
X87442742Y-32796715D01*
X87442742Y-32510591D02*
X86441309Y-32510591D01*
X86584371Y-32605966D01*
X86679745Y-32701340D01*
X86727432Y-32796715D01*
X89082450Y-33456457D02*
X89130145Y-33313373D01*
X89177840Y-33265678D01*
X89273230Y-33217983D01*
X89416314Y-33217983D01*
X89511704Y-33265678D01*
X89559398Y-33313373D01*
X89607093Y-33408762D01*
X89607093Y-33790321D01*
X88605502Y-33790321D01*
X88605502Y-33456457D01*
X88653197Y-33361068D01*
X88700892Y-33313373D01*
X88796281Y-33265678D01*
X88891671Y-33265678D01*
X88987061Y-33313373D01*
X89034755Y-33361068D01*
X89082450Y-33456457D01*
X89082450Y-33790321D01*
X89589355Y-37175323D02*
X89589355Y-36841620D01*
X90113746Y-36698604D02*
X90113746Y-37175323D01*
X89112636Y-37175323D01*
X89112636Y-36698604D01*
X89511338Y-30170300D02*
X89558984Y-30217946D01*
X89606630Y-30360884D01*
X89606630Y-30456176D01*
X89558984Y-30599115D01*
X89463692Y-30694407D01*
X89368400Y-30742053D01*
X89177816Y-30789699D01*
X89034877Y-30789699D01*
X88844293Y-30742053D01*
X88749001Y-30694407D01*
X88653709Y-30599115D01*
X88606063Y-30456176D01*
X88606063Y-30360884D01*
X88653709Y-30217946D01*
X88701355Y-30170300D01*
%TO.C,R2*%
X74620380Y-45124666D02*
X74144190Y-45458000D01*
X74620380Y-45696095D02*
X73620380Y-45696095D01*
X73620380Y-45315142D01*
X73668000Y-45219904D01*
X73715619Y-45172285D01*
X73810857Y-45124666D01*
X73953714Y-45124666D01*
X74048952Y-45172285D01*
X74096571Y-45219904D01*
X74144190Y-45315142D01*
X74144190Y-45696095D01*
X73715619Y-44743714D02*
X73668000Y-44696095D01*
X73620380Y-44600857D01*
X73620380Y-44362761D01*
X73668000Y-44267523D01*
X73715619Y-44219904D01*
X73810857Y-44172285D01*
X73906095Y-44172285D01*
X74048952Y-44219904D01*
X74620380Y-44791333D01*
X74620380Y-44172285D01*
%TO.C,U1*%
X79120868Y-29679877D02*
X79120868Y-30490847D01*
X79168572Y-30586256D01*
X79216277Y-30633960D01*
X79311685Y-30681664D01*
X79502501Y-30681664D01*
X79597910Y-30633960D01*
X79645614Y-30586256D01*
X79693318Y-30490847D01*
X79693318Y-29679877D01*
X80695105Y-30681664D02*
X80122655Y-30681664D01*
X80408880Y-30681664D02*
X80408880Y-29679877D01*
X80313472Y-29822989D01*
X80218064Y-29918398D01*
X80122655Y-29966102D01*
%TO.C,U2*%
X86574380Y-45973904D02*
X87383904Y-45973904D01*
X87479142Y-45926285D01*
X87526761Y-45878666D01*
X87574380Y-45783428D01*
X87574380Y-45592952D01*
X87526761Y-45497714D01*
X87479142Y-45450095D01*
X87383904Y-45402476D01*
X86574380Y-45402476D01*
X86669619Y-44973904D02*
X86622000Y-44926285D01*
X86574380Y-44831047D01*
X86574380Y-44592952D01*
X86622000Y-44497714D01*
X86669619Y-44450095D01*
X86764857Y-44402476D01*
X86860095Y-44402476D01*
X87002952Y-44450095D01*
X87574380Y-45021523D01*
X87574380Y-44402476D01*
%TO.C,K1*%
X99458263Y-60914534D02*
X98458169Y-60914534D01*
X99458263Y-60343052D02*
X98886781Y-60771664D01*
X98458169Y-60343052D02*
X99029651Y-60914534D01*
X99458263Y-59390581D02*
X99458263Y-59962064D01*
X99458263Y-59676323D02*
X98458169Y-59676323D01*
X98601040Y-59771570D01*
X98696287Y-59866817D01*
X98743910Y-59962064D01*
%TO.C,J3*%
X32432666Y-40782380D02*
X32432666Y-41496666D01*
X32385047Y-41639523D01*
X32289809Y-41734761D01*
X32146952Y-41782380D01*
X32051714Y-41782380D01*
X32813619Y-40782380D02*
X33432666Y-40782380D01*
X33099333Y-41163333D01*
X33242190Y-41163333D01*
X33337428Y-41210952D01*
X33385047Y-41258571D01*
X33432666Y-41353809D01*
X33432666Y-41591904D01*
X33385047Y-41687142D01*
X33337428Y-41734761D01*
X33242190Y-41782380D01*
X32956476Y-41782380D01*
X32861238Y-41734761D01*
X32813619Y-41687142D01*
%TO.C,R1*%
X81732380Y-49442666D02*
X81256190Y-49776000D01*
X81732380Y-50014095D02*
X80732380Y-50014095D01*
X80732380Y-49633142D01*
X80780000Y-49537904D01*
X80827619Y-49490285D01*
X80922857Y-49442666D01*
X81065714Y-49442666D01*
X81160952Y-49490285D01*
X81208571Y-49537904D01*
X81256190Y-49633142D01*
X81256190Y-50014095D01*
X81732380Y-48490285D02*
X81732380Y-49061714D01*
X81732380Y-48776000D02*
X80732380Y-48776000D01*
X80875238Y-48871238D01*
X80970476Y-48966476D01*
X81018095Y-49061714D01*
%TO.C,R3*%
X103238380Y-38774666D02*
X102762190Y-39108000D01*
X103238380Y-39346095D02*
X102238380Y-39346095D01*
X102238380Y-38965142D01*
X102286000Y-38869904D01*
X102333619Y-38822285D01*
X102428857Y-38774666D01*
X102571714Y-38774666D01*
X102666952Y-38822285D01*
X102714571Y-38869904D01*
X102762190Y-38965142D01*
X102762190Y-39346095D01*
X102238380Y-38441333D02*
X102238380Y-37822285D01*
X102619333Y-38155619D01*
X102619333Y-38012761D01*
X102666952Y-37917523D01*
X102714571Y-37869904D01*
X102809809Y-37822285D01*
X103047904Y-37822285D01*
X103143142Y-37869904D01*
X103190761Y-37917523D01*
X103238380Y-38012761D01*
X103238380Y-38298476D01*
X103190761Y-38393714D01*
X103143142Y-38441333D01*
%TO.C,J1*%
X92670380Y-86693333D02*
X93384666Y-86693333D01*
X93527523Y-86740952D01*
X93622761Y-86836190D01*
X93670380Y-86979047D01*
X93670380Y-87074285D01*
X93670380Y-85693333D02*
X93670380Y-86264761D01*
X93670380Y-85979047D02*
X92670380Y-85979047D01*
X92813238Y-86074285D01*
X92908476Y-86169523D01*
X92956095Y-86264761D01*
%TO.C,A1*%
X50966666Y-76914285D02*
X50966666Y-76438095D01*
X51252380Y-77009523D02*
X50252380Y-76676190D01*
X51252380Y-76342857D01*
X51252380Y-75485714D02*
X51252380Y-76057142D01*
X51252380Y-75771428D02*
X50252380Y-75771428D01*
X50395238Y-75866666D01*
X50490476Y-75961904D01*
X50538095Y-76057142D01*
X36951218Y-89686903D02*
X36978155Y-89767715D01*
X37058967Y-89848528D01*
X37166717Y-89902402D01*
X37274467Y-89902402D01*
X37355279Y-89875465D01*
X37489966Y-89794653D01*
X37570778Y-89713841D01*
X37651590Y-89579154D01*
X37678528Y-89498341D01*
X37678528Y-89390592D01*
X37624653Y-89282842D01*
X37570778Y-89228967D01*
X37463028Y-89175093D01*
X37409154Y-89175093D01*
X37220592Y-89363654D01*
X37328341Y-89471404D01*
X37220592Y-88878781D02*
X36654906Y-89444467D01*
X36439407Y-89228967D01*
X36412470Y-89148155D01*
X36412470Y-89094280D01*
X36439407Y-89013468D01*
X36520219Y-88932656D01*
X36601032Y-88905719D01*
X36654906Y-88905719D01*
X36735719Y-88932656D01*
X36951218Y-89148155D01*
X36143096Y-88932656D02*
X35792910Y-88582470D01*
X36196971Y-88555532D01*
X36116158Y-88474720D01*
X36089221Y-88393908D01*
X36089221Y-88340033D01*
X36116158Y-88259221D01*
X36250845Y-88124534D01*
X36331658Y-88097597D01*
X36385532Y-88097597D01*
X36466345Y-88124534D01*
X36627969Y-88286158D01*
X36654906Y-88366971D01*
X36654906Y-88420845D01*
X27327309Y-64246870D02*
X27704433Y-63492622D01*
X26950186Y-63869746D01*
X26842436Y-63223248D02*
X26788561Y-63115499D01*
X26788561Y-63061624D01*
X26815499Y-62980812D01*
X26896311Y-62900000D01*
X26977123Y-62873062D01*
X27030998Y-62873062D01*
X27111810Y-62900000D01*
X27327309Y-63115499D01*
X26761624Y-63681184D01*
X26573062Y-63492622D01*
X26546125Y-63411810D01*
X26546125Y-63357935D01*
X26573062Y-63277123D01*
X26626937Y-63223248D01*
X26707749Y-63196311D01*
X26761624Y-63196311D01*
X26842436Y-63223248D01*
X27030998Y-63411810D01*
X26195938Y-63115499D02*
X26653874Y-62657563D01*
X26680812Y-62576751D01*
X26680812Y-62522876D01*
X26653874Y-62442064D01*
X26546125Y-62334314D01*
X26465312Y-62307377D01*
X26411438Y-62307377D01*
X26330625Y-62334314D01*
X25872690Y-62792250D01*
X26169001Y-62011065D02*
X26115126Y-61903316D01*
X25980439Y-61768629D01*
X25899627Y-61741691D01*
X25845752Y-61741691D01*
X25764940Y-61768629D01*
X25711065Y-61822503D01*
X25684128Y-61903316D01*
X25684128Y-61957190D01*
X25711065Y-62038003D01*
X25791877Y-62172690D01*
X25818815Y-62253502D01*
X25818815Y-62307377D01*
X25791877Y-62388189D01*
X25738003Y-62442064D01*
X25657190Y-62469001D01*
X25603316Y-62469001D01*
X25522503Y-62442064D01*
X25387816Y-62307377D01*
X25333942Y-62199627D01*
X47111218Y-89686903D02*
X47138155Y-89767715D01*
X47218967Y-89848528D01*
X47326717Y-89902402D01*
X47434467Y-89902402D01*
X47515279Y-89875465D01*
X47649966Y-89794653D01*
X47730778Y-89713841D01*
X47811590Y-89579154D01*
X47838528Y-89498341D01*
X47838528Y-89390592D01*
X47784653Y-89282842D01*
X47730778Y-89228967D01*
X47623028Y-89175093D01*
X47569154Y-89175093D01*
X47380592Y-89363654D01*
X47488341Y-89471404D01*
X47380592Y-88878781D02*
X46814906Y-89444467D01*
X46599407Y-89228967D01*
X46572470Y-89148155D01*
X46572470Y-89094280D01*
X46599407Y-89013468D01*
X46680219Y-88932656D01*
X46761032Y-88905719D01*
X46814906Y-88905719D01*
X46895719Y-88932656D01*
X47111218Y-89148155D01*
X46006784Y-88636345D02*
X46114534Y-88744094D01*
X46195346Y-88771032D01*
X46249221Y-88771032D01*
X46383908Y-88744094D01*
X46518595Y-88663282D01*
X46734094Y-88447783D01*
X46761032Y-88366971D01*
X46761032Y-88313096D01*
X46734094Y-88232284D01*
X46626345Y-88124534D01*
X46545532Y-88097597D01*
X46491658Y-88097597D01*
X46410845Y-88124534D01*
X46276158Y-88259221D01*
X46249221Y-88340033D01*
X46249221Y-88393908D01*
X46276158Y-88474720D01*
X46383908Y-88582470D01*
X46464720Y-88609407D01*
X46518595Y-88609407D01*
X46599407Y-88582470D01*
X31898155Y-64113841D02*
X31925093Y-64194653D01*
X32005905Y-64275465D01*
X32113654Y-64329340D01*
X32221404Y-64329340D01*
X32302216Y-64302402D01*
X32436903Y-64221590D01*
X32517715Y-64140778D01*
X32598528Y-64006091D01*
X32625465Y-63925279D01*
X32625465Y-63817529D01*
X32571590Y-63709780D01*
X32517715Y-63655905D01*
X32409966Y-63602030D01*
X32356091Y-63602030D01*
X32167529Y-63790592D01*
X32275279Y-63898341D01*
X32167529Y-63305719D02*
X31601844Y-63871404D01*
X31844280Y-62982470D01*
X31278595Y-63548155D01*
X31574906Y-62713096D02*
X31009221Y-63278781D01*
X30874534Y-63144094D01*
X30820659Y-63036345D01*
X30820659Y-62928595D01*
X30847597Y-62847783D01*
X30928409Y-62713096D01*
X31009221Y-62632284D01*
X31143908Y-62551471D01*
X31224720Y-62524534D01*
X31332470Y-62524534D01*
X31440219Y-62578409D01*
X31574906Y-62713096D01*
X49621218Y-89586903D02*
X49648155Y-89667715D01*
X49728967Y-89748528D01*
X49836717Y-89802402D01*
X49944467Y-89802402D01*
X50025279Y-89775465D01*
X50159966Y-89694653D01*
X50240778Y-89613841D01*
X50321590Y-89479154D01*
X50348528Y-89398341D01*
X50348528Y-89290592D01*
X50294653Y-89182842D01*
X50240778Y-89128967D01*
X50133028Y-89075093D01*
X50079154Y-89075093D01*
X49890592Y-89263654D01*
X49998341Y-89371404D01*
X49890592Y-88778781D02*
X49324906Y-89344467D01*
X49109407Y-89128967D01*
X49082470Y-89048155D01*
X49082470Y-88994280D01*
X49109407Y-88913468D01*
X49190219Y-88832656D01*
X49271032Y-88805719D01*
X49324906Y-88805719D01*
X49405719Y-88832656D01*
X49621218Y-89048155D01*
X48813096Y-88832656D02*
X48435972Y-88455532D01*
X49244094Y-88132284D01*
X57298155Y-64113841D02*
X57325093Y-64194653D01*
X57405905Y-64275465D01*
X57513654Y-64329340D01*
X57621404Y-64329340D01*
X57702216Y-64302402D01*
X57836903Y-64221590D01*
X57917715Y-64140778D01*
X57998528Y-64006091D01*
X58025465Y-63925279D01*
X58025465Y-63817529D01*
X57971590Y-63709780D01*
X57917715Y-63655905D01*
X57809966Y-63602030D01*
X57756091Y-63602030D01*
X57567529Y-63790592D01*
X57675279Y-63898341D01*
X57567529Y-63305719D02*
X57001844Y-63871404D01*
X57244280Y-62982470D01*
X56678595Y-63548155D01*
X56974906Y-62713096D02*
X56409221Y-63278781D01*
X56274534Y-63144094D01*
X56220659Y-63036345D01*
X56220659Y-62928595D01*
X56247597Y-62847783D01*
X56328409Y-62713096D01*
X56409221Y-62632284D01*
X56543908Y-62551471D01*
X56624720Y-62524534D01*
X56732470Y-62524534D01*
X56840219Y-62578409D01*
X56974906Y-62713096D01*
X55000592Y-64102277D02*
X55027529Y-64183089D01*
X55108341Y-64263902D01*
X55216091Y-64317776D01*
X55323841Y-64317776D01*
X55404653Y-64290839D01*
X55539340Y-64210027D01*
X55620152Y-64129215D01*
X55700964Y-63994528D01*
X55727902Y-63913715D01*
X55727902Y-63805966D01*
X55674027Y-63698216D01*
X55620152Y-63644341D01*
X55512402Y-63590467D01*
X55458528Y-63590467D01*
X55269966Y-63779028D01*
X55377715Y-63886778D01*
X55269966Y-63294155D02*
X54704280Y-63859841D01*
X54488781Y-63644341D01*
X54461844Y-63563529D01*
X54461844Y-63509654D01*
X54488781Y-63428842D01*
X54569593Y-63348030D01*
X54650406Y-63321093D01*
X54704280Y-63321093D01*
X54785093Y-63348030D01*
X55000592Y-63563529D01*
X54219407Y-63267218D02*
X54165532Y-63267218D01*
X54084720Y-63240280D01*
X53950033Y-63105593D01*
X53923096Y-63024781D01*
X53923096Y-62970906D01*
X53950033Y-62890094D01*
X54003908Y-62836219D01*
X54111658Y-62782345D01*
X54758155Y-62782345D01*
X54407969Y-62432158D01*
X53680659Y-62728470D02*
X53626784Y-62728470D01*
X53545972Y-62701532D01*
X53411285Y-62566845D01*
X53384348Y-62486033D01*
X53384348Y-62432158D01*
X53411285Y-62351346D01*
X53465160Y-62297471D01*
X53572910Y-62243597D01*
X54219407Y-62243597D01*
X53869221Y-61893410D01*
X69998155Y-89713841D02*
X70025093Y-89794653D01*
X70105905Y-89875465D01*
X70213654Y-89929340D01*
X70321404Y-89929340D01*
X70402216Y-89902402D01*
X70536903Y-89821590D01*
X70617715Y-89740778D01*
X70698528Y-89606091D01*
X70725465Y-89525279D01*
X70725465Y-89417529D01*
X70671590Y-89309780D01*
X70617715Y-89255905D01*
X70509966Y-89202030D01*
X70456091Y-89202030D01*
X70267529Y-89390592D01*
X70375279Y-89498341D01*
X70267529Y-88905719D02*
X69701844Y-89471404D01*
X69944280Y-88582470D01*
X69378595Y-89148155D01*
X69674906Y-88313096D02*
X69109221Y-88878781D01*
X68974534Y-88744094D01*
X68920659Y-88636345D01*
X68920659Y-88528595D01*
X68947597Y-88447783D01*
X69028409Y-88313096D01*
X69109221Y-88232284D01*
X69243908Y-88151471D01*
X69324720Y-88124534D01*
X69432470Y-88124534D01*
X69540219Y-88178409D01*
X69674906Y-88313096D01*
X42046592Y-64102277D02*
X42073529Y-64183089D01*
X42154341Y-64263902D01*
X42262091Y-64317776D01*
X42369841Y-64317776D01*
X42450653Y-64290839D01*
X42585340Y-64210027D01*
X42666152Y-64129215D01*
X42746964Y-63994528D01*
X42773902Y-63913715D01*
X42773902Y-63805966D01*
X42720027Y-63698216D01*
X42666152Y-63644341D01*
X42558402Y-63590467D01*
X42504528Y-63590467D01*
X42315966Y-63779028D01*
X42423715Y-63886778D01*
X42315966Y-63294155D02*
X41750280Y-63859841D01*
X41534781Y-63644341D01*
X41507844Y-63563529D01*
X41507844Y-63509654D01*
X41534781Y-63428842D01*
X41615593Y-63348030D01*
X41696406Y-63321093D01*
X41750280Y-63321093D01*
X41831093Y-63348030D01*
X42046592Y-63563529D01*
X41265407Y-63267218D02*
X41211532Y-63267218D01*
X41130720Y-63240280D01*
X40996033Y-63105593D01*
X40969096Y-63024781D01*
X40969096Y-62970906D01*
X40996033Y-62890094D01*
X41049908Y-62836219D01*
X41157658Y-62782345D01*
X41804155Y-62782345D01*
X41453969Y-62432158D01*
X40807471Y-62432158D02*
X40834409Y-62512971D01*
X40834409Y-62566845D01*
X40807471Y-62647658D01*
X40780534Y-62674595D01*
X40699722Y-62701532D01*
X40645847Y-62701532D01*
X40565035Y-62674595D01*
X40457285Y-62566845D01*
X40430348Y-62486033D01*
X40430348Y-62432158D01*
X40457285Y-62351346D01*
X40484223Y-62324409D01*
X40565035Y-62297471D01*
X40618910Y-62297471D01*
X40699722Y-62324409D01*
X40807471Y-62432158D01*
X40888284Y-62459096D01*
X40942158Y-62459096D01*
X41022971Y-62432158D01*
X41130720Y-62324409D01*
X41157658Y-62243597D01*
X41157658Y-62189722D01*
X41130720Y-62108910D01*
X41022971Y-62001160D01*
X40942158Y-61974223D01*
X40888284Y-61974223D01*
X40807471Y-62001160D01*
X40699722Y-62108910D01*
X40672784Y-62189722D01*
X40672784Y-62243597D01*
X40699722Y-62324409D01*
X37290592Y-64310152D02*
X36940406Y-63959966D01*
X37344467Y-63933028D01*
X37263654Y-63852216D01*
X37236717Y-63771404D01*
X37236717Y-63717529D01*
X37263654Y-63636717D01*
X37398341Y-63502030D01*
X37479154Y-63475093D01*
X37533028Y-63475093D01*
X37613841Y-63502030D01*
X37775465Y-63663654D01*
X37802402Y-63744467D01*
X37802402Y-63798341D01*
X36778781Y-63798341D02*
X37155905Y-63044094D01*
X36401658Y-63421218D01*
X36266971Y-63286531D02*
X35916784Y-62936345D01*
X36320845Y-62909407D01*
X36240033Y-62828595D01*
X36213096Y-62747783D01*
X36213096Y-62693908D01*
X36240033Y-62613096D01*
X36374720Y-62478409D01*
X36455532Y-62451471D01*
X36509407Y-62451471D01*
X36590219Y-62478409D01*
X36751844Y-62640033D01*
X36778781Y-62720845D01*
X36778781Y-62774720D01*
X49920592Y-64102277D02*
X49947529Y-64183089D01*
X50028341Y-64263902D01*
X50136091Y-64317776D01*
X50243841Y-64317776D01*
X50324653Y-64290839D01*
X50459340Y-64210027D01*
X50540152Y-64129215D01*
X50620964Y-63994528D01*
X50647902Y-63913715D01*
X50647902Y-63805966D01*
X50594027Y-63698216D01*
X50540152Y-63644341D01*
X50432402Y-63590467D01*
X50378528Y-63590467D01*
X50189966Y-63779028D01*
X50297715Y-63886778D01*
X50189966Y-63294155D02*
X49624280Y-63859841D01*
X49408781Y-63644341D01*
X49381844Y-63563529D01*
X49381844Y-63509654D01*
X49408781Y-63428842D01*
X49489593Y-63348030D01*
X49570406Y-63321093D01*
X49624280Y-63321093D01*
X49705093Y-63348030D01*
X49920592Y-63563529D01*
X49139407Y-63267218D02*
X49085532Y-63267218D01*
X49004720Y-63240280D01*
X48870033Y-63105593D01*
X48843096Y-63024781D01*
X48843096Y-62970906D01*
X48870033Y-62890094D01*
X48923908Y-62836219D01*
X49031658Y-62782345D01*
X49678155Y-62782345D01*
X49327969Y-62432158D01*
X48277410Y-62512971D02*
X48385160Y-62620720D01*
X48465972Y-62647658D01*
X48519847Y-62647658D01*
X48654534Y-62620720D01*
X48789221Y-62539908D01*
X49004720Y-62324409D01*
X49031658Y-62243597D01*
X49031658Y-62189722D01*
X49004720Y-62108910D01*
X48896971Y-62001160D01*
X48816158Y-61974223D01*
X48762284Y-61974223D01*
X48681471Y-62001160D01*
X48546784Y-62135847D01*
X48519847Y-62216659D01*
X48519847Y-62270534D01*
X48546784Y-62351346D01*
X48654534Y-62459096D01*
X48735346Y-62486033D01*
X48789221Y-62486033D01*
X48870033Y-62459096D01*
X69998155Y-64113841D02*
X70025093Y-64194653D01*
X70105905Y-64275465D01*
X70213654Y-64329340D01*
X70321404Y-64329340D01*
X70402216Y-64302402D01*
X70536903Y-64221590D01*
X70617715Y-64140778D01*
X70698528Y-64006091D01*
X70725465Y-63925279D01*
X70725465Y-63817529D01*
X70671590Y-63709780D01*
X70617715Y-63655905D01*
X70509966Y-63602030D01*
X70456091Y-63602030D01*
X70267529Y-63790592D01*
X70375279Y-63898341D01*
X70267529Y-63305719D02*
X69701844Y-63871404D01*
X69944280Y-62982470D01*
X69378595Y-63548155D01*
X69674906Y-62713096D02*
X69109221Y-63278781D01*
X68974534Y-63144094D01*
X68920659Y-63036345D01*
X68920659Y-62928595D01*
X68947597Y-62847783D01*
X69028409Y-62713096D01*
X69109221Y-62632284D01*
X69243908Y-62551471D01*
X69324720Y-62524534D01*
X69432470Y-62524534D01*
X69540219Y-62578409D01*
X69674906Y-62713096D01*
X52191218Y-89686903D02*
X52218155Y-89767715D01*
X52298967Y-89848528D01*
X52406717Y-89902402D01*
X52514467Y-89902402D01*
X52595279Y-89875465D01*
X52729966Y-89794653D01*
X52810778Y-89713841D01*
X52891590Y-89579154D01*
X52918528Y-89498341D01*
X52918528Y-89390592D01*
X52864653Y-89282842D01*
X52810778Y-89228967D01*
X52703028Y-89175093D01*
X52649154Y-89175093D01*
X52460592Y-89363654D01*
X52568341Y-89471404D01*
X52460592Y-88878781D02*
X51894906Y-89444467D01*
X51679407Y-89228967D01*
X51652470Y-89148155D01*
X51652470Y-89094280D01*
X51679407Y-89013468D01*
X51760219Y-88932656D01*
X51841032Y-88905719D01*
X51894906Y-88905719D01*
X51975719Y-88932656D01*
X52191218Y-89148155D01*
X51490845Y-88555532D02*
X51517783Y-88636345D01*
X51517783Y-88690219D01*
X51490845Y-88771032D01*
X51463908Y-88797969D01*
X51383096Y-88824906D01*
X51329221Y-88824906D01*
X51248409Y-88797969D01*
X51140659Y-88690219D01*
X51113722Y-88609407D01*
X51113722Y-88555532D01*
X51140659Y-88474720D01*
X51167597Y-88447783D01*
X51248409Y-88420845D01*
X51302284Y-88420845D01*
X51383096Y-88447783D01*
X51490845Y-88555532D01*
X51571658Y-88582470D01*
X51625532Y-88582470D01*
X51706345Y-88555532D01*
X51814094Y-88447783D01*
X51841032Y-88366971D01*
X51841032Y-88313096D01*
X51814094Y-88232284D01*
X51706345Y-88124534D01*
X51625532Y-88097597D01*
X51571658Y-88097597D01*
X51490845Y-88124534D01*
X51383096Y-88232284D01*
X51356158Y-88313096D01*
X51356158Y-88366971D01*
X51383096Y-88447783D01*
X60090592Y-64102277D02*
X60117529Y-64183089D01*
X60198341Y-64263902D01*
X60306091Y-64317776D01*
X60413841Y-64317776D01*
X60494653Y-64290839D01*
X60629340Y-64210027D01*
X60710152Y-64129215D01*
X60790964Y-63994528D01*
X60817902Y-63913715D01*
X60817902Y-63805966D01*
X60764027Y-63698216D01*
X60710152Y-63644341D01*
X60602402Y-63590467D01*
X60548528Y-63590467D01*
X60359966Y-63779028D01*
X60467715Y-63886778D01*
X60359966Y-63294155D02*
X59794280Y-63859841D01*
X59578781Y-63644341D01*
X59551844Y-63563529D01*
X59551844Y-63509654D01*
X59578781Y-63428842D01*
X59659593Y-63348030D01*
X59740406Y-63321093D01*
X59794280Y-63321093D01*
X59875093Y-63348030D01*
X60090592Y-63563529D01*
X59309407Y-63267218D02*
X59255532Y-63267218D01*
X59174720Y-63240280D01*
X59040033Y-63105593D01*
X59013096Y-63024781D01*
X59013096Y-62970906D01*
X59040033Y-62890094D01*
X59093908Y-62836219D01*
X59201658Y-62782345D01*
X59848155Y-62782345D01*
X59497969Y-62432158D01*
X58959221Y-61893410D02*
X59282470Y-62216659D01*
X59120845Y-62055035D02*
X58555160Y-62620720D01*
X58689847Y-62593783D01*
X58797597Y-62593783D01*
X58878409Y-62620720D01*
X67700592Y-64102277D02*
X67727529Y-64183089D01*
X67808341Y-64263902D01*
X67916091Y-64317776D01*
X68023841Y-64317776D01*
X68104653Y-64290839D01*
X68239340Y-64210027D01*
X68320152Y-64129215D01*
X68400964Y-63994528D01*
X68427902Y-63913715D01*
X68427902Y-63805966D01*
X68374027Y-63698216D01*
X68320152Y-63644341D01*
X68212402Y-63590467D01*
X68158528Y-63590467D01*
X67969966Y-63779028D01*
X68077715Y-63886778D01*
X67969966Y-63294155D02*
X67404280Y-63859841D01*
X67188781Y-63644341D01*
X67161844Y-63563529D01*
X67161844Y-63509654D01*
X67188781Y-63428842D01*
X67269593Y-63348030D01*
X67350406Y-63321093D01*
X67404280Y-63321093D01*
X67485093Y-63348030D01*
X67700592Y-63563529D01*
X67107969Y-62432158D02*
X67431218Y-62755407D01*
X67269593Y-62593783D02*
X66703908Y-63159468D01*
X66838595Y-63132531D01*
X66946345Y-63132531D01*
X67027157Y-63159468D01*
X66461471Y-62432158D02*
X66488409Y-62512971D01*
X66488409Y-62566845D01*
X66461471Y-62647658D01*
X66434534Y-62674595D01*
X66353722Y-62701532D01*
X66299847Y-62701532D01*
X66219035Y-62674595D01*
X66111285Y-62566845D01*
X66084348Y-62486033D01*
X66084348Y-62432158D01*
X66111285Y-62351346D01*
X66138223Y-62324409D01*
X66219035Y-62297471D01*
X66272910Y-62297471D01*
X66353722Y-62324409D01*
X66461471Y-62432158D01*
X66542284Y-62459096D01*
X66596158Y-62459096D01*
X66676971Y-62432158D01*
X66784720Y-62324409D01*
X66811658Y-62243597D01*
X66811658Y-62189722D01*
X66784720Y-62108910D01*
X66676971Y-62001160D01*
X66596158Y-61974223D01*
X66542284Y-61974223D01*
X66461471Y-62001160D01*
X66353722Y-62108910D01*
X66326784Y-62189722D01*
X66326784Y-62243597D01*
X66353722Y-62324409D01*
X39491218Y-89686903D02*
X39518155Y-89767715D01*
X39598967Y-89848528D01*
X39706717Y-89902402D01*
X39814467Y-89902402D01*
X39895279Y-89875465D01*
X40029966Y-89794653D01*
X40110778Y-89713841D01*
X40191590Y-89579154D01*
X40218528Y-89498341D01*
X40218528Y-89390592D01*
X40164653Y-89282842D01*
X40110778Y-89228967D01*
X40003028Y-89175093D01*
X39949154Y-89175093D01*
X39760592Y-89363654D01*
X39868341Y-89471404D01*
X39760592Y-88878781D02*
X39194906Y-89444467D01*
X38979407Y-89228967D01*
X38952470Y-89148155D01*
X38952470Y-89094280D01*
X38979407Y-89013468D01*
X39060219Y-88932656D01*
X39141032Y-88905719D01*
X39194906Y-88905719D01*
X39275719Y-88932656D01*
X39491218Y-89148155D01*
X38575346Y-88447783D02*
X38952470Y-88070659D01*
X38494534Y-88797969D02*
X39033282Y-88528595D01*
X38683096Y-88178409D01*
X34758308Y-64277868D02*
X34408122Y-63927682D01*
X34812183Y-63900744D01*
X34731370Y-63819932D01*
X34704433Y-63739120D01*
X34704433Y-63685245D01*
X34731370Y-63604433D01*
X34866057Y-63469746D01*
X34946870Y-63442809D01*
X35000744Y-63442809D01*
X35081557Y-63469746D01*
X35243181Y-63631370D01*
X35270118Y-63712183D01*
X35270118Y-63766057D01*
X34246497Y-63766057D02*
X34623621Y-63011810D01*
X33869374Y-63388934D01*
X33734687Y-63254247D02*
X33384500Y-62904061D01*
X33788561Y-62877123D01*
X33707749Y-62796311D01*
X33680812Y-62715499D01*
X33680812Y-62661624D01*
X33707749Y-62580812D01*
X33842436Y-62446125D01*
X33923248Y-62419187D01*
X33977123Y-62419187D01*
X34057935Y-62446125D01*
X34219560Y-62607749D01*
X34246497Y-62688561D01*
X34246497Y-62742436D01*
X33896311Y-62176751D02*
X33465312Y-61745752D01*
X32980439Y-61961251D02*
X32791877Y-61772690D01*
X33007377Y-61395566D02*
X33276751Y-61664940D01*
X32711065Y-62230625D01*
X32441691Y-61961251D01*
X32764940Y-61153129D02*
X32199255Y-61718815D01*
X32441691Y-60829881D01*
X31876006Y-61395566D01*
X57298155Y-89713841D02*
X57325093Y-89794653D01*
X57405905Y-89875465D01*
X57513654Y-89929340D01*
X57621404Y-89929340D01*
X57702216Y-89902402D01*
X57836903Y-89821590D01*
X57917715Y-89740778D01*
X57998528Y-89606091D01*
X58025465Y-89525279D01*
X58025465Y-89417529D01*
X57971590Y-89309780D01*
X57917715Y-89255905D01*
X57809966Y-89202030D01*
X57756091Y-89202030D01*
X57567529Y-89390592D01*
X57675279Y-89498341D01*
X57567529Y-88905719D02*
X57001844Y-89471404D01*
X57244280Y-88582470D01*
X56678595Y-89148155D01*
X56974906Y-88313096D02*
X56409221Y-88878781D01*
X56274534Y-88744094D01*
X56220659Y-88636345D01*
X56220659Y-88528595D01*
X56247597Y-88447783D01*
X56328409Y-88313096D01*
X56409221Y-88232284D01*
X56543908Y-88151471D01*
X56624720Y-88124534D01*
X56732470Y-88124534D01*
X56840219Y-88178409D01*
X56974906Y-88313096D01*
X68023092Y-90210277D02*
X68050029Y-90291089D01*
X68130841Y-90371902D01*
X68238591Y-90425776D01*
X68346341Y-90425776D01*
X68427153Y-90398839D01*
X68561840Y-90318027D01*
X68642652Y-90237215D01*
X68723464Y-90102528D01*
X68750402Y-90021715D01*
X68750402Y-89913966D01*
X68696527Y-89806216D01*
X68642652Y-89752341D01*
X68534902Y-89698467D01*
X68481028Y-89698467D01*
X68292466Y-89887028D01*
X68400215Y-89994778D01*
X68292466Y-89402155D02*
X67726780Y-89967841D01*
X67511281Y-89752341D01*
X67484344Y-89671529D01*
X67484344Y-89617654D01*
X67511281Y-89536842D01*
X67592093Y-89456030D01*
X67672906Y-89429093D01*
X67726780Y-89429093D01*
X67807593Y-89456030D01*
X68023092Y-89671529D01*
X67430469Y-88540158D02*
X67753718Y-88863407D01*
X67592093Y-88701783D02*
X67026408Y-89267468D01*
X67161095Y-89240531D01*
X67268845Y-89240531D01*
X67349657Y-89267468D01*
X66676222Y-88917282D02*
X66326036Y-88567096D01*
X66730097Y-88540158D01*
X66649284Y-88459346D01*
X66622347Y-88378534D01*
X66622347Y-88324659D01*
X66649284Y-88243847D01*
X66783971Y-88109160D01*
X66864784Y-88082223D01*
X66918658Y-88082223D01*
X66999471Y-88109160D01*
X67161095Y-88270784D01*
X67188032Y-88351597D01*
X67188032Y-88405471D01*
X65160592Y-64102277D02*
X65187529Y-64183089D01*
X65268341Y-64263902D01*
X65376091Y-64317776D01*
X65483841Y-64317776D01*
X65564653Y-64290839D01*
X65699340Y-64210027D01*
X65780152Y-64129215D01*
X65860964Y-63994528D01*
X65887902Y-63913715D01*
X65887902Y-63805966D01*
X65834027Y-63698216D01*
X65780152Y-63644341D01*
X65672402Y-63590467D01*
X65618528Y-63590467D01*
X65429966Y-63779028D01*
X65537715Y-63886778D01*
X65429966Y-63294155D02*
X64864280Y-63859841D01*
X64648781Y-63644341D01*
X64621844Y-63563529D01*
X64621844Y-63509654D01*
X64648781Y-63428842D01*
X64729593Y-63348030D01*
X64810406Y-63321093D01*
X64864280Y-63321093D01*
X64945093Y-63348030D01*
X65160592Y-63563529D01*
X64567969Y-62432158D02*
X64891218Y-62755407D01*
X64729593Y-62593783D02*
X64163908Y-63159468D01*
X64298595Y-63132531D01*
X64406345Y-63132531D01*
X64487157Y-63159468D01*
X64298595Y-62162784D02*
X64190845Y-62055035D01*
X64110033Y-62028097D01*
X64056158Y-62028097D01*
X63921471Y-62055035D01*
X63786784Y-62135847D01*
X63571285Y-62351346D01*
X63544348Y-62432158D01*
X63544348Y-62486033D01*
X63571285Y-62566845D01*
X63679035Y-62674595D01*
X63759847Y-62701532D01*
X63813722Y-62701532D01*
X63894534Y-62674595D01*
X64029221Y-62539908D01*
X64056158Y-62459096D01*
X64056158Y-62405221D01*
X64029221Y-62324409D01*
X63921471Y-62216659D01*
X63840659Y-62189722D01*
X63786784Y-62189722D01*
X63705972Y-62216659D01*
X52743435Y-63361624D02*
X52662622Y-63819560D01*
X53066683Y-63684873D02*
X52500998Y-64250558D01*
X52285499Y-64035059D01*
X52258561Y-63954247D01*
X52258561Y-63900372D01*
X52285499Y-63819560D01*
X52366311Y-63738748D01*
X52447123Y-63711810D01*
X52500998Y-63711810D01*
X52581810Y-63738748D01*
X52797309Y-63954247D01*
X51935312Y-63684873D02*
X52393248Y-63226937D01*
X52420186Y-63146125D01*
X52420186Y-63092250D01*
X52393248Y-63011438D01*
X52285499Y-62903688D01*
X52204687Y-62876751D01*
X52150812Y-62876751D01*
X52070000Y-62903688D01*
X51612064Y-63361624D01*
X51908375Y-62526564D02*
X51342690Y-63092250D01*
X51585126Y-62203316D01*
X51019441Y-62769001D01*
X31898155Y-89713841D02*
X31925093Y-89794653D01*
X32005905Y-89875465D01*
X32113654Y-89929340D01*
X32221404Y-89929340D01*
X32302216Y-89902402D01*
X32436903Y-89821590D01*
X32517715Y-89740778D01*
X32598528Y-89606091D01*
X32625465Y-89525279D01*
X32625465Y-89417529D01*
X32571590Y-89309780D01*
X32517715Y-89255905D01*
X32409966Y-89202030D01*
X32356091Y-89202030D01*
X32167529Y-89390592D01*
X32275279Y-89498341D01*
X32167529Y-88905719D02*
X31601844Y-89471404D01*
X31844280Y-88582470D01*
X31278595Y-89148155D01*
X31574906Y-88313096D02*
X31009221Y-88878781D01*
X30874534Y-88744094D01*
X30820659Y-88636345D01*
X30820659Y-88528595D01*
X30847597Y-88447783D01*
X30928409Y-88313096D01*
X31009221Y-88232284D01*
X31143908Y-88151471D01*
X31224720Y-88124534D01*
X31332470Y-88124534D01*
X31440219Y-88178409D01*
X31574906Y-88313096D01*
X54731218Y-89686903D02*
X54758155Y-89767715D01*
X54838967Y-89848528D01*
X54946717Y-89902402D01*
X55054467Y-89902402D01*
X55135279Y-89875465D01*
X55269966Y-89794653D01*
X55350778Y-89713841D01*
X55431590Y-89579154D01*
X55458528Y-89498341D01*
X55458528Y-89390592D01*
X55404653Y-89282842D01*
X55350778Y-89228967D01*
X55243028Y-89175093D01*
X55189154Y-89175093D01*
X55000592Y-89363654D01*
X55108341Y-89471404D01*
X55000592Y-88878781D02*
X54434906Y-89444467D01*
X54219407Y-89228967D01*
X54192470Y-89148155D01*
X54192470Y-89094280D01*
X54219407Y-89013468D01*
X54300219Y-88932656D01*
X54381032Y-88905719D01*
X54434906Y-88905719D01*
X54515719Y-88932656D01*
X54731218Y-89148155D01*
X54407969Y-88286158D02*
X54300219Y-88178409D01*
X54219407Y-88151471D01*
X54165532Y-88151471D01*
X54030845Y-88178409D01*
X53896158Y-88259221D01*
X53680659Y-88474720D01*
X53653722Y-88555532D01*
X53653722Y-88609407D01*
X53680659Y-88690219D01*
X53788409Y-88797969D01*
X53869221Y-88824906D01*
X53923096Y-88824906D01*
X54003908Y-88797969D01*
X54138595Y-88663282D01*
X54165532Y-88582470D01*
X54165532Y-88528595D01*
X54138595Y-88447783D01*
X54030845Y-88340033D01*
X53950033Y-88313096D01*
X53896158Y-88313096D01*
X53815346Y-88340033D01*
X59123809Y-72395238D02*
X59161904Y-72280952D01*
X59161904Y-72090476D01*
X59123809Y-72014285D01*
X59085714Y-71976190D01*
X59009523Y-71938095D01*
X58933333Y-71938095D01*
X58857142Y-71976190D01*
X58819047Y-72014285D01*
X58780952Y-72090476D01*
X58742857Y-72242857D01*
X58704761Y-72319047D01*
X58666666Y-72357142D01*
X58590476Y-72395238D01*
X58514285Y-72395238D01*
X58438095Y-72357142D01*
X58400000Y-72319047D01*
X58361904Y-72242857D01*
X58361904Y-72052380D01*
X58400000Y-71938095D01*
X58361904Y-71671428D02*
X59161904Y-71480952D01*
X58590476Y-71328571D01*
X59161904Y-71176190D01*
X58361904Y-70985714D01*
X59161904Y-70680952D02*
X58361904Y-70680952D01*
X58361904Y-70490476D01*
X58400000Y-70376190D01*
X58476190Y-70300000D01*
X58552380Y-70261904D01*
X58704761Y-70223809D01*
X58819047Y-70223809D01*
X58971428Y-70261904D01*
X59047619Y-70300000D01*
X59123809Y-70376190D01*
X59161904Y-70490476D01*
X59161904Y-70680952D01*
X59161904Y-69880952D02*
X58361904Y-69880952D01*
X58361904Y-69347619D02*
X58361904Y-69195238D01*
X58400000Y-69119047D01*
X58476190Y-69042857D01*
X58628571Y-69004761D01*
X58895238Y-69004761D01*
X59047619Y-69042857D01*
X59123809Y-69119047D01*
X59161904Y-69195238D01*
X59161904Y-69347619D01*
X59123809Y-69423809D01*
X59047619Y-69500000D01*
X58895238Y-69538095D01*
X58628571Y-69538095D01*
X58476190Y-69500000D01*
X58400000Y-69423809D01*
X58361904Y-69347619D01*
X62620592Y-64102277D02*
X62647529Y-64183089D01*
X62728341Y-64263902D01*
X62836091Y-64317776D01*
X62943841Y-64317776D01*
X63024653Y-64290839D01*
X63159340Y-64210027D01*
X63240152Y-64129215D01*
X63320964Y-63994528D01*
X63347902Y-63913715D01*
X63347902Y-63805966D01*
X63294027Y-63698216D01*
X63240152Y-63644341D01*
X63132402Y-63590467D01*
X63078528Y-63590467D01*
X62889966Y-63779028D01*
X62997715Y-63886778D01*
X62889966Y-63294155D02*
X62324280Y-63859841D01*
X62108781Y-63644341D01*
X62081844Y-63563529D01*
X62081844Y-63509654D01*
X62108781Y-63428842D01*
X62189593Y-63348030D01*
X62270406Y-63321093D01*
X62324280Y-63321093D01*
X62405093Y-63348030D01*
X62620592Y-63563529D01*
X61839407Y-63267218D02*
X61785532Y-63267218D01*
X61704720Y-63240280D01*
X61570033Y-63105593D01*
X61543096Y-63024781D01*
X61543096Y-62970906D01*
X61570033Y-62890094D01*
X61623908Y-62836219D01*
X61731658Y-62782345D01*
X62378155Y-62782345D01*
X62027969Y-62432158D01*
X61112097Y-62647658D02*
X61058223Y-62593783D01*
X61031285Y-62512971D01*
X61031285Y-62459096D01*
X61058223Y-62378284D01*
X61139035Y-62243597D01*
X61273722Y-62108910D01*
X61408409Y-62028097D01*
X61489221Y-62001160D01*
X61543096Y-62001160D01*
X61623908Y-62028097D01*
X61677783Y-62081972D01*
X61704720Y-62162784D01*
X61704720Y-62216659D01*
X61677783Y-62297471D01*
X61596971Y-62432158D01*
X61462284Y-62566845D01*
X61327597Y-62647658D01*
X61246784Y-62674595D01*
X61192910Y-62674595D01*
X61112097Y-62647658D01*
X60080592Y-90210277D02*
X60107529Y-90291089D01*
X60188341Y-90371902D01*
X60296091Y-90425776D01*
X60403841Y-90425776D01*
X60484653Y-90398839D01*
X60619340Y-90318027D01*
X60700152Y-90237215D01*
X60780964Y-90102528D01*
X60807902Y-90021715D01*
X60807902Y-89913966D01*
X60754027Y-89806216D01*
X60700152Y-89752341D01*
X60592402Y-89698467D01*
X60538528Y-89698467D01*
X60349966Y-89887028D01*
X60457715Y-89994778D01*
X60349966Y-89402155D02*
X59784280Y-89967841D01*
X59568781Y-89752341D01*
X59541844Y-89671529D01*
X59541844Y-89617654D01*
X59568781Y-89536842D01*
X59649593Y-89456030D01*
X59730406Y-89429093D01*
X59784280Y-89429093D01*
X59865093Y-89456030D01*
X60080592Y-89671529D01*
X59487969Y-88540158D02*
X59811218Y-88863407D01*
X59649593Y-88701783D02*
X59083908Y-89267468D01*
X59218595Y-89240531D01*
X59326345Y-89240531D01*
X59407157Y-89267468D01*
X58572097Y-88755658D02*
X58518223Y-88701783D01*
X58491285Y-88620971D01*
X58491285Y-88567096D01*
X58518223Y-88486284D01*
X58599035Y-88351597D01*
X58733722Y-88216910D01*
X58868409Y-88136097D01*
X58949221Y-88109160D01*
X59003096Y-88109160D01*
X59083908Y-88136097D01*
X59137783Y-88189972D01*
X59164720Y-88270784D01*
X59164720Y-88324659D01*
X59137783Y-88405471D01*
X59056971Y-88540158D01*
X58922284Y-88674845D01*
X58787597Y-88755658D01*
X58706784Y-88782595D01*
X58652910Y-88782595D01*
X58572097Y-88755658D01*
X62943092Y-90356277D02*
X62970029Y-90437089D01*
X63050841Y-90517902D01*
X63158591Y-90571776D01*
X63266341Y-90571776D01*
X63347153Y-90544839D01*
X63481840Y-90464027D01*
X63562652Y-90383215D01*
X63643464Y-90248528D01*
X63670402Y-90167715D01*
X63670402Y-90059966D01*
X63616527Y-89952216D01*
X63562652Y-89898341D01*
X63454902Y-89844467D01*
X63401028Y-89844467D01*
X63212466Y-90033028D01*
X63320215Y-90140778D01*
X63212466Y-89548155D02*
X62646780Y-90113841D01*
X62431281Y-89898341D01*
X62404344Y-89817529D01*
X62404344Y-89763654D01*
X62431281Y-89682842D01*
X62512093Y-89602030D01*
X62592906Y-89575093D01*
X62646780Y-89575093D01*
X62727593Y-89602030D01*
X62943092Y-89817529D01*
X62350469Y-88686158D02*
X62673718Y-89009407D01*
X62512093Y-88847783D02*
X61946408Y-89413468D01*
X62081095Y-89386531D01*
X62188845Y-89386531D01*
X62269657Y-89413468D01*
X61811721Y-88147410D02*
X62134970Y-88470659D01*
X61973345Y-88309035D02*
X61407660Y-88874720D01*
X61542347Y-88847783D01*
X61650097Y-88847783D01*
X61730909Y-88874720D01*
X29869966Y-64279526D02*
X30247089Y-63525279D01*
X29492842Y-63902402D01*
X29869966Y-63202030D02*
X29816091Y-63094280D01*
X29681404Y-62959593D01*
X29600592Y-62932656D01*
X29546717Y-62932656D01*
X29465905Y-62959593D01*
X29412030Y-63013468D01*
X29385093Y-63094280D01*
X29385093Y-63148155D01*
X29412030Y-63228967D01*
X29492842Y-63363654D01*
X29519780Y-63444467D01*
X29519780Y-63498341D01*
X29492842Y-63579154D01*
X29438967Y-63633028D01*
X29358155Y-63659966D01*
X29304280Y-63659966D01*
X29223468Y-63633028D01*
X29088781Y-63498341D01*
X29034906Y-63390592D01*
X28954094Y-62771032D02*
X29223468Y-62501658D01*
X28846345Y-63255905D02*
X28954094Y-62771032D01*
X28469221Y-62878781D01*
X28846345Y-62178409D02*
X28792470Y-62070659D01*
X28657783Y-61935972D01*
X28576971Y-61909035D01*
X28523096Y-61909035D01*
X28442284Y-61935972D01*
X28388409Y-61989847D01*
X28361471Y-62070659D01*
X28361471Y-62124534D01*
X28388409Y-62205346D01*
X28469221Y-62340033D01*
X28496158Y-62420845D01*
X28496158Y-62474720D01*
X28469221Y-62555532D01*
X28415346Y-62609407D01*
X28334534Y-62636345D01*
X28280659Y-62636345D01*
X28199847Y-62609407D01*
X28065160Y-62474720D01*
X28011285Y-62366971D01*
X39717466Y-64412026D02*
X40094589Y-63657779D01*
X39340342Y-64034902D01*
X39394217Y-62957406D02*
X39313405Y-63415342D01*
X39717466Y-63280655D02*
X39151780Y-63846341D01*
X38936281Y-63630841D01*
X38909344Y-63550029D01*
X38909344Y-63496154D01*
X38936281Y-63415342D01*
X39017093Y-63334530D01*
X39097906Y-63307593D01*
X39151780Y-63307593D01*
X39232593Y-63334530D01*
X39448092Y-63550029D01*
X38855469Y-63011281D02*
X38666907Y-62822719D01*
X38882406Y-62445596D02*
X39151780Y-62714970D01*
X38586095Y-63280655D01*
X38316721Y-63011281D01*
X38155097Y-62310909D02*
X38343658Y-62499471D01*
X38639970Y-62203159D02*
X38074284Y-62768845D01*
X37804910Y-62499471D01*
X44598155Y-89713841D02*
X44625093Y-89794653D01*
X44705905Y-89875465D01*
X44813654Y-89929340D01*
X44921404Y-89929340D01*
X45002216Y-89902402D01*
X45136903Y-89821590D01*
X45217715Y-89740778D01*
X45298528Y-89606091D01*
X45325465Y-89525279D01*
X45325465Y-89417529D01*
X45271590Y-89309780D01*
X45217715Y-89255905D01*
X45109966Y-89202030D01*
X45056091Y-89202030D01*
X44867529Y-89390592D01*
X44975279Y-89498341D01*
X44867529Y-88905719D02*
X44301844Y-89471404D01*
X44544280Y-88582470D01*
X43978595Y-89148155D01*
X44274906Y-88313096D02*
X43709221Y-88878781D01*
X43574534Y-88744094D01*
X43520659Y-88636345D01*
X43520659Y-88528595D01*
X43547597Y-88447783D01*
X43628409Y-88313096D01*
X43709221Y-88232284D01*
X43843908Y-88151471D01*
X43924720Y-88124534D01*
X44032470Y-88124534D01*
X44140219Y-88178409D01*
X44274906Y-88313096D01*
X26791218Y-89686903D02*
X26818155Y-89767715D01*
X26898967Y-89848528D01*
X27006717Y-89902402D01*
X27114467Y-89902402D01*
X27195279Y-89875465D01*
X27329966Y-89794653D01*
X27410778Y-89713841D01*
X27491590Y-89579154D01*
X27518528Y-89498341D01*
X27518528Y-89390592D01*
X27464653Y-89282842D01*
X27410778Y-89228967D01*
X27303028Y-89175093D01*
X27249154Y-89175093D01*
X27060592Y-89363654D01*
X27168341Y-89471404D01*
X27060592Y-88878781D02*
X26494906Y-89444467D01*
X26279407Y-89228967D01*
X26252470Y-89148155D01*
X26252470Y-89094280D01*
X26279407Y-89013468D01*
X26360219Y-88932656D01*
X26441032Y-88905719D01*
X26494906Y-88905719D01*
X26575719Y-88932656D01*
X26791218Y-89148155D01*
X25821471Y-88771032D02*
X25767597Y-88717157D01*
X25740659Y-88636345D01*
X25740659Y-88582470D01*
X25767597Y-88501658D01*
X25848409Y-88366971D01*
X25983096Y-88232284D01*
X26117783Y-88151471D01*
X26198595Y-88124534D01*
X26252470Y-88124534D01*
X26333282Y-88151471D01*
X26387157Y-88205346D01*
X26414094Y-88286158D01*
X26414094Y-88340033D01*
X26387157Y-88420845D01*
X26306345Y-88555532D01*
X26171658Y-88690219D01*
X26036971Y-88771032D01*
X25956158Y-88797969D01*
X25902284Y-88797969D01*
X25821471Y-88771032D01*
X34411218Y-89786903D02*
X34438155Y-89867715D01*
X34518967Y-89948528D01*
X34626717Y-90002402D01*
X34734467Y-90002402D01*
X34815279Y-89975465D01*
X34949966Y-89894653D01*
X35030778Y-89813841D01*
X35111590Y-89679154D01*
X35138528Y-89598341D01*
X35138528Y-89490592D01*
X35084653Y-89382842D01*
X35030778Y-89328967D01*
X34923028Y-89275093D01*
X34869154Y-89275093D01*
X34680592Y-89463654D01*
X34788341Y-89571404D01*
X34680592Y-88978781D02*
X34114906Y-89544467D01*
X33899407Y-89328967D01*
X33872470Y-89248155D01*
X33872470Y-89194280D01*
X33899407Y-89113468D01*
X33980219Y-89032656D01*
X34061032Y-89005719D01*
X34114906Y-89005719D01*
X34195719Y-89032656D01*
X34411218Y-89248155D01*
X33630033Y-88951844D02*
X33576158Y-88951844D01*
X33495346Y-88924906D01*
X33360659Y-88790219D01*
X33333722Y-88709407D01*
X33333722Y-88655532D01*
X33360659Y-88574720D01*
X33414534Y-88520845D01*
X33522284Y-88466971D01*
X34168781Y-88466971D01*
X33818595Y-88116784D01*
X75320592Y-64102277D02*
X75347529Y-64183089D01*
X75428341Y-64263902D01*
X75536091Y-64317776D01*
X75643841Y-64317776D01*
X75724653Y-64290839D01*
X75859340Y-64210027D01*
X75940152Y-64129215D01*
X76020964Y-63994528D01*
X76047902Y-63913715D01*
X76047902Y-63805966D01*
X75994027Y-63698216D01*
X75940152Y-63644341D01*
X75832402Y-63590467D01*
X75778528Y-63590467D01*
X75589966Y-63779028D01*
X75697715Y-63886778D01*
X75589966Y-63294155D02*
X75024280Y-63859841D01*
X74808781Y-63644341D01*
X74781844Y-63563529D01*
X74781844Y-63509654D01*
X74808781Y-63428842D01*
X74889593Y-63348030D01*
X74970406Y-63321093D01*
X75024280Y-63321093D01*
X75105093Y-63348030D01*
X75320592Y-63563529D01*
X74727969Y-62432158D02*
X75051218Y-62755407D01*
X74889593Y-62593783D02*
X74323908Y-63159468D01*
X74458595Y-63132531D01*
X74566345Y-63132531D01*
X74647157Y-63159468D01*
X73677410Y-62512971D02*
X73785160Y-62620720D01*
X73865972Y-62647658D01*
X73919847Y-62647658D01*
X74054534Y-62620720D01*
X74189221Y-62539908D01*
X74404720Y-62324409D01*
X74431658Y-62243597D01*
X74431658Y-62189722D01*
X74404720Y-62108910D01*
X74296971Y-62001160D01*
X74216158Y-61974223D01*
X74162284Y-61974223D01*
X74081471Y-62001160D01*
X73946784Y-62135847D01*
X73919847Y-62216659D01*
X73919847Y-62270534D01*
X73946784Y-62351346D01*
X74054534Y-62459096D01*
X74135346Y-62486033D01*
X74189221Y-62486033D01*
X74270033Y-62459096D01*
X75320592Y-90210277D02*
X75347529Y-90291089D01*
X75428341Y-90371902D01*
X75536091Y-90425776D01*
X75643841Y-90425776D01*
X75724653Y-90398839D01*
X75859340Y-90318027D01*
X75940152Y-90237215D01*
X76020964Y-90102528D01*
X76047902Y-90021715D01*
X76047902Y-89913966D01*
X75994027Y-89806216D01*
X75940152Y-89752341D01*
X75832402Y-89698467D01*
X75778528Y-89698467D01*
X75589966Y-89887028D01*
X75697715Y-89994778D01*
X75589966Y-89402155D02*
X75024280Y-89967841D01*
X74808781Y-89752341D01*
X74781844Y-89671529D01*
X74781844Y-89617654D01*
X74808781Y-89536842D01*
X74889593Y-89456030D01*
X74970406Y-89429093D01*
X75024280Y-89429093D01*
X75105093Y-89456030D01*
X75320592Y-89671529D01*
X74727969Y-88540158D02*
X75051218Y-88863407D01*
X74889593Y-88701783D02*
X74323908Y-89267468D01*
X74458595Y-89240531D01*
X74566345Y-89240531D01*
X74647157Y-89267468D01*
X73650473Y-88594033D02*
X73919847Y-88863407D01*
X74216158Y-88620971D01*
X74162284Y-88620971D01*
X74081471Y-88594033D01*
X73946784Y-88459346D01*
X73919847Y-88378534D01*
X73919847Y-88324659D01*
X73946784Y-88243847D01*
X74081471Y-88109160D01*
X74162284Y-88082223D01*
X74216158Y-88082223D01*
X74296971Y-88109160D01*
X74431658Y-88243847D01*
X74458595Y-88324659D01*
X74458595Y-88378534D01*
X45540964Y-64048402D02*
X45271590Y-63779028D01*
X45756463Y-63940653D02*
X45002216Y-64317776D01*
X45379340Y-63563529D01*
X44355719Y-63617404D02*
X44382656Y-63698216D01*
X44463468Y-63779028D01*
X44571218Y-63832903D01*
X44678967Y-63832903D01*
X44759780Y-63805966D01*
X44894467Y-63725154D01*
X44975279Y-63644341D01*
X45056091Y-63509654D01*
X45083028Y-63428842D01*
X45083028Y-63321093D01*
X45029154Y-63213343D01*
X44975279Y-63159468D01*
X44867529Y-63105593D01*
X44813654Y-63105593D01*
X44625093Y-63294155D01*
X44732842Y-63401905D01*
X44625093Y-62809282D02*
X44059407Y-63374967D01*
X44301844Y-62486033D01*
X43736158Y-63051719D01*
X44032470Y-62216659D02*
X43466784Y-62782345D01*
X43332097Y-62647658D01*
X43278223Y-62539908D01*
X43278223Y-62432158D01*
X43305160Y-62351346D01*
X43385972Y-62216659D01*
X43466784Y-62135847D01*
X43601471Y-62055035D01*
X43682284Y-62028097D01*
X43790033Y-62028097D01*
X43897783Y-62081972D01*
X44032470Y-62216659D01*
X65483092Y-90356277D02*
X65510029Y-90437089D01*
X65590841Y-90517902D01*
X65698591Y-90571776D01*
X65806341Y-90571776D01*
X65887153Y-90544839D01*
X66021840Y-90464027D01*
X66102652Y-90383215D01*
X66183464Y-90248528D01*
X66210402Y-90167715D01*
X66210402Y-90059966D01*
X66156527Y-89952216D01*
X66102652Y-89898341D01*
X65994902Y-89844467D01*
X65941028Y-89844467D01*
X65752466Y-90033028D01*
X65860215Y-90140778D01*
X65752466Y-89548155D02*
X65186780Y-90113841D01*
X64971281Y-89898341D01*
X64944344Y-89817529D01*
X64944344Y-89763654D01*
X64971281Y-89682842D01*
X65052093Y-89602030D01*
X65132906Y-89575093D01*
X65186780Y-89575093D01*
X65267593Y-89602030D01*
X65483092Y-89817529D01*
X64890469Y-88686158D02*
X65213718Y-89009407D01*
X65052093Y-88847783D02*
X64486408Y-89413468D01*
X64621095Y-89386531D01*
X64728845Y-89386531D01*
X64809657Y-89413468D01*
X64163159Y-88982470D02*
X64109284Y-88982470D01*
X64028472Y-88955532D01*
X63893785Y-88820845D01*
X63866848Y-88740033D01*
X63866848Y-88686158D01*
X63893785Y-88605346D01*
X63947660Y-88551471D01*
X64055410Y-88497597D01*
X64701907Y-88497597D01*
X64351721Y-88147410D01*
X29321218Y-89786903D02*
X29348155Y-89867715D01*
X29428967Y-89948528D01*
X29536717Y-90002402D01*
X29644467Y-90002402D01*
X29725279Y-89975465D01*
X29859966Y-89894653D01*
X29940778Y-89813841D01*
X30021590Y-89679154D01*
X30048528Y-89598341D01*
X30048528Y-89490592D01*
X29994653Y-89382842D01*
X29940778Y-89328967D01*
X29833028Y-89275093D01*
X29779154Y-89275093D01*
X29590592Y-89463654D01*
X29698341Y-89571404D01*
X29590592Y-88978781D02*
X29024906Y-89544467D01*
X28809407Y-89328967D01*
X28782470Y-89248155D01*
X28782470Y-89194280D01*
X28809407Y-89113468D01*
X28890219Y-89032656D01*
X28971032Y-89005719D01*
X29024906Y-89005719D01*
X29105719Y-89032656D01*
X29321218Y-89248155D01*
X28728595Y-88116784D02*
X29051844Y-88440033D01*
X28890219Y-88278409D02*
X28324534Y-88844094D01*
X28459221Y-88817157D01*
X28566971Y-88817157D01*
X28647783Y-88844094D01*
X47390592Y-64102277D02*
X47417529Y-64183089D01*
X47498341Y-64263902D01*
X47606091Y-64317776D01*
X47713841Y-64317776D01*
X47794653Y-64290839D01*
X47929340Y-64210027D01*
X48010152Y-64129215D01*
X48090964Y-63994528D01*
X48117902Y-63913715D01*
X48117902Y-63805966D01*
X48064027Y-63698216D01*
X48010152Y-63644341D01*
X47902402Y-63590467D01*
X47848528Y-63590467D01*
X47659966Y-63779028D01*
X47767715Y-63886778D01*
X47659966Y-63294155D02*
X47094280Y-63859841D01*
X46878781Y-63644341D01*
X46851844Y-63563529D01*
X46851844Y-63509654D01*
X46878781Y-63428842D01*
X46959593Y-63348030D01*
X47040406Y-63321093D01*
X47094280Y-63321093D01*
X47175093Y-63348030D01*
X47390592Y-63563529D01*
X46609407Y-63267218D02*
X46555532Y-63267218D01*
X46474720Y-63240280D01*
X46340033Y-63105593D01*
X46313096Y-63024781D01*
X46313096Y-62970906D01*
X46340033Y-62890094D01*
X46393908Y-62836219D01*
X46501658Y-62782345D01*
X47148155Y-62782345D01*
X46797969Y-62432158D01*
X46043722Y-62809282D02*
X45666598Y-62432158D01*
X46474720Y-62108910D01*
X72780592Y-64102277D02*
X72807529Y-64183089D01*
X72888341Y-64263902D01*
X72996091Y-64317776D01*
X73103841Y-64317776D01*
X73184653Y-64290839D01*
X73319340Y-64210027D01*
X73400152Y-64129215D01*
X73480964Y-63994528D01*
X73507902Y-63913715D01*
X73507902Y-63805966D01*
X73454027Y-63698216D01*
X73400152Y-63644341D01*
X73292402Y-63590467D01*
X73238528Y-63590467D01*
X73049966Y-63779028D01*
X73157715Y-63886778D01*
X73049966Y-63294155D02*
X72484280Y-63859841D01*
X72268781Y-63644341D01*
X72241844Y-63563529D01*
X72241844Y-63509654D01*
X72268781Y-63428842D01*
X72349593Y-63348030D01*
X72430406Y-63321093D01*
X72484280Y-63321093D01*
X72565093Y-63348030D01*
X72780592Y-63563529D01*
X72187969Y-62432158D02*
X72511218Y-62755407D01*
X72349593Y-62593783D02*
X71783908Y-63159468D01*
X71918595Y-63132531D01*
X72026345Y-63132531D01*
X72107157Y-63159468D01*
X71433722Y-62809282D02*
X71056598Y-62432158D01*
X71864720Y-62108910D01*
X58623809Y-79009523D02*
X58661904Y-78895238D01*
X58661904Y-78704761D01*
X58623809Y-78628571D01*
X58585714Y-78590476D01*
X58509523Y-78552380D01*
X58433333Y-78552380D01*
X58357142Y-78590476D01*
X58319047Y-78628571D01*
X58280952Y-78704761D01*
X58242857Y-78857142D01*
X58204761Y-78933333D01*
X58166666Y-78971428D01*
X58090476Y-79009523D01*
X58014285Y-79009523D01*
X57938095Y-78971428D01*
X57900000Y-78933333D01*
X57861904Y-78857142D01*
X57861904Y-78666666D01*
X57900000Y-78552380D01*
X57861904Y-78285714D02*
X58661904Y-78095238D01*
X58090476Y-77942857D01*
X58661904Y-77790476D01*
X57861904Y-77600000D01*
X58585714Y-76838095D02*
X58623809Y-76876190D01*
X58661904Y-76990476D01*
X58661904Y-77066666D01*
X58623809Y-77180952D01*
X58547619Y-77257142D01*
X58471428Y-77295238D01*
X58319047Y-77333333D01*
X58204761Y-77333333D01*
X58052380Y-77295238D01*
X57976190Y-77257142D01*
X57900000Y-77180952D01*
X57861904Y-77066666D01*
X57861904Y-76990476D01*
X57900000Y-76876190D01*
X57938095Y-76838095D01*
X58661904Y-76114285D02*
X58661904Y-76495238D01*
X57861904Y-76495238D01*
X58661904Y-75847619D02*
X57861904Y-75847619D01*
X58661904Y-75390476D02*
X58204761Y-75733333D01*
X57861904Y-75390476D02*
X58319047Y-75847619D01*
X42031218Y-89686903D02*
X42058155Y-89767715D01*
X42138967Y-89848528D01*
X42246717Y-89902402D01*
X42354467Y-89902402D01*
X42435279Y-89875465D01*
X42569966Y-89794653D01*
X42650778Y-89713841D01*
X42731590Y-89579154D01*
X42758528Y-89498341D01*
X42758528Y-89390592D01*
X42704653Y-89282842D01*
X42650778Y-89228967D01*
X42543028Y-89175093D01*
X42489154Y-89175093D01*
X42300592Y-89363654D01*
X42408341Y-89471404D01*
X42300592Y-88878781D02*
X41734906Y-89444467D01*
X41519407Y-89228967D01*
X41492470Y-89148155D01*
X41492470Y-89094280D01*
X41519407Y-89013468D01*
X41600219Y-88932656D01*
X41681032Y-88905719D01*
X41734906Y-88905719D01*
X41815719Y-88932656D01*
X42031218Y-89148155D01*
X40899847Y-88609407D02*
X41169221Y-88878781D01*
X41465532Y-88636345D01*
X41411658Y-88636345D01*
X41330845Y-88609407D01*
X41196158Y-88474720D01*
X41169221Y-88393908D01*
X41169221Y-88340033D01*
X41196158Y-88259221D01*
X41330845Y-88124534D01*
X41411658Y-88097597D01*
X41465532Y-88097597D01*
X41546345Y-88124534D01*
X41681032Y-88259221D01*
X41707969Y-88340033D01*
X41707969Y-88393908D01*
X72780592Y-90256277D02*
X72807529Y-90337089D01*
X72888341Y-90417902D01*
X72996091Y-90471776D01*
X73103841Y-90471776D01*
X73184653Y-90444839D01*
X73319340Y-90364027D01*
X73400152Y-90283215D01*
X73480964Y-90148528D01*
X73507902Y-90067715D01*
X73507902Y-89959966D01*
X73454027Y-89852216D01*
X73400152Y-89798341D01*
X73292402Y-89744467D01*
X73238528Y-89744467D01*
X73049966Y-89933028D01*
X73157715Y-90040778D01*
X73049966Y-89448155D02*
X72484280Y-90013841D01*
X72268781Y-89798341D01*
X72241844Y-89717529D01*
X72241844Y-89663654D01*
X72268781Y-89582842D01*
X72349593Y-89502030D01*
X72430406Y-89475093D01*
X72484280Y-89475093D01*
X72565093Y-89502030D01*
X72780592Y-89717529D01*
X72187969Y-88586158D02*
X72511218Y-88909407D01*
X72349593Y-88747783D02*
X71783908Y-89313468D01*
X71918595Y-89286531D01*
X72026345Y-89286531D01*
X72107157Y-89313468D01*
X71325972Y-88478409D02*
X71703096Y-88101285D01*
X71245160Y-88828595D02*
X71783908Y-88559221D01*
X71433722Y-88209035D01*
D11*
%TO.C,Brd1*%
X42388000Y-57512000D02*
X42388000Y-30212000D01*
X69366000Y-54217000D02*
X46266000Y-54217000D01*
X46266000Y-37617000D02*
X42926000Y-37592000D01*
X69788000Y-30212000D02*
X69788000Y-57512000D01*
X42926000Y-54229000D02*
X43180000Y-54217000D01*
X51308000Y-54610000D02*
X61087000Y-54610000D01*
X61087000Y-57023000D02*
X61087000Y-54610000D01*
X42388000Y-30212000D02*
X69788000Y-30212000D01*
X61087000Y-57023000D02*
X51308000Y-57023000D01*
X51308000Y-57023000D02*
X51308000Y-54610000D01*
X46266000Y-54217000D02*
X43180000Y-54217000D01*
X46266000Y-37617000D02*
X69366000Y-37617000D01*
X69366000Y-37617000D02*
X69366000Y-54217000D01*
X42926000Y-37592000D02*
X42926000Y-54229000D01*
X69788000Y-57512000D02*
X42388000Y-57512000D01*
D12*
%TO.C,D1*%
X99816000Y-27686000D02*
X99816000Y-26736000D01*
X96016000Y-28646000D02*
X95256000Y-28646000D01*
X99816000Y-28646000D02*
X99056000Y-28646000D01*
X94336000Y-27686000D02*
X95256000Y-27686000D01*
X99816000Y-26726000D02*
X99056000Y-26726000D01*
X99816000Y-28646000D02*
X99816000Y-27686000D01*
X99816000Y-27686000D02*
X100736000Y-27686000D01*
X95256000Y-28636000D02*
X95256000Y-27686000D01*
X96016000Y-26726000D02*
X95256000Y-26726000D01*
X95256000Y-27686000D02*
X95256000Y-26726000D01*
D13*
X102936000Y-27686000D02*
G75*
G03*
X102936000Y-27686000I-100000J0D01*
G01*
D12*
%TO.C,T1*%
X92328993Y-35623000D02*
X92328993Y-31433000D01*
X91813893Y-35941500D02*
G75*
G03*
X92328993Y-35623000I-1136005J2413002D01*
G01*
X92328993Y-31433000D02*
G75*
G03*
X91789793Y-31103300I-1651050J-2094410D01*
G01*
X89542093Y-31115000D02*
G75*
G03*
X89542093Y-35941000I1135909J-2413000D01*
G01*
D11*
%TO.C,R2*%
X77824000Y-50768000D02*
X77824000Y-44228000D01*
X75084000Y-44228000D02*
X75084000Y-50768000D01*
X76454000Y-43458000D02*
X76454000Y-44228000D01*
X75084000Y-50768000D02*
X77824000Y-50768000D01*
X76454000Y-51538000D02*
X76454000Y-50768000D01*
X77824000Y-44228000D02*
X75084000Y-44228000D01*
D14*
%TO.C,U1*%
X76898000Y-35246000D02*
X81598000Y-35246000D01*
X81594530Y-35246830D02*
G75*
G03*
X81661000Y-32766000I-2428429J1306371D01*
G01*
X76835000Y-32766000D02*
G75*
G03*
X76898330Y-35243920I2498026J-1175925D01*
G01*
D12*
X77148000Y-33366000D02*
G75*
G03*
X77148000Y-33366000I-100000J0D01*
G01*
D11*
%TO.C,U2*%
X87819000Y-50138000D02*
X93019000Y-50138000D01*
X93019000Y-44838000D02*
X87819000Y-44838000D01*
X87819000Y-48488000D02*
X87819000Y-50138000D01*
X87819000Y-44838000D02*
X87819000Y-46488000D01*
X93019000Y-50138000D02*
X93019000Y-44838000D01*
X87819000Y-48488000D02*
G75*
G03*
X87819000Y-46488000I0J1000000D01*
G01*
D12*
%TO.C,K1*%
X82420000Y-57252000D02*
X97920000Y-57252000D01*
X82420000Y-76352000D02*
X82420000Y-57252000D01*
X97920000Y-76352000D02*
X82420000Y-76352000D01*
X97920000Y-57252000D02*
X97920000Y-76352000D01*
D15*
X96389000Y-56602000D02*
G75*
G03*
X96389000Y-56602000I-100000J0D01*
G01*
D11*
%TO.C,J3*%
X24966000Y-48480000D02*
X40566000Y-48480000D01*
X24966000Y-35180000D02*
X24966000Y-48480000D01*
X24966000Y-35180000D02*
X40566000Y-35180000D01*
X40566000Y-48480000D02*
X40566000Y-35180000D01*
%TO.C,R1*%
X83566000Y-49506000D02*
X83566000Y-48736000D01*
X84936000Y-42196000D02*
X82196000Y-42196000D01*
X84936000Y-48736000D02*
X84936000Y-42196000D01*
X83566000Y-41426000D02*
X83566000Y-42196000D01*
X82196000Y-48736000D02*
X84936000Y-48736000D01*
X82196000Y-42196000D02*
X82196000Y-48736000D01*
%TO.C,R3*%
X106526000Y-35338000D02*
X103786000Y-35338000D01*
X105156000Y-34568000D02*
X105156000Y-35338000D01*
X103786000Y-41878000D02*
X106526000Y-41878000D01*
X106526000Y-41878000D02*
X106526000Y-35338000D01*
X105156000Y-42648000D02*
X105156000Y-41878000D01*
X103786000Y-35338000D02*
X103786000Y-41878000D01*
D13*
%TO.C,J1*%
X100443000Y-90840000D02*
X100518000Y-90440000D01*
X101218000Y-90440000D02*
X101293000Y-90840000D01*
X101293000Y-90840000D02*
X100443000Y-90840000D01*
X100518000Y-90440000D02*
X95478000Y-90440000D01*
X95553000Y-90840000D02*
X94703000Y-90840000D01*
X95478000Y-90440000D02*
X95553000Y-90840000D01*
X94778000Y-90440000D02*
X94198000Y-90440000D01*
X94198000Y-90440000D02*
X94198000Y-79740000D01*
X94198000Y-79740000D02*
X101798000Y-79740000D01*
X94703000Y-90840000D02*
X94778000Y-90440000D01*
X101798000Y-79740000D02*
X101798000Y-90440000D01*
X101798000Y-90440000D02*
X101218000Y-90440000D01*
D16*
X96598000Y-89340000D02*
G75*
G03*
X96598000Y-89340000I-100000J0D01*
G01*
D11*
%TO.C,A1*%
X45500000Y-65700000D02*
X45900000Y-65700000D01*
X25300000Y-65700000D02*
X25600000Y-65700000D01*
X43000000Y-86700000D02*
X43400000Y-86700000D01*
X25300000Y-86700000D02*
X25600000Y-86700000D01*
X58200000Y-65700000D02*
X58600000Y-65700000D01*
X73500000Y-65700000D02*
X73900000Y-65700000D01*
X27967000Y-83693000D02*
X25300000Y-83693000D01*
X65900000Y-65700000D02*
X66300000Y-65700000D01*
X53100000Y-65700000D02*
X53500000Y-65700000D01*
X68400000Y-86700000D02*
X68800000Y-86700000D01*
X40400000Y-65700000D02*
X40800000Y-65700000D01*
X25300000Y-86700000D02*
X25300000Y-65700000D01*
X45500000Y-86700000D02*
X45900000Y-86700000D01*
X50600000Y-86700000D02*
X51000000Y-86700000D01*
X50600000Y-65700000D02*
X51000000Y-65700000D01*
X63300000Y-86700000D02*
X63700000Y-86700000D01*
X48100000Y-86700000D02*
X48500000Y-86700000D01*
X32800000Y-86700000D02*
X33200000Y-86700000D01*
X32800000Y-65700000D02*
X33200000Y-65700000D01*
X70900000Y-65700000D02*
X71300000Y-65700000D01*
X27967000Y-86700000D02*
X27967000Y-83693000D01*
X27700000Y-86700000D02*
X28100000Y-86700000D01*
X73500000Y-86700000D02*
X73900000Y-86700000D01*
X58200000Y-86700000D02*
X58600000Y-86700000D01*
X76300000Y-65700000D02*
X76300000Y-72500000D01*
X53100000Y-86700000D02*
X53500000Y-86700000D01*
X76300000Y-75100000D02*
X76300000Y-74700000D01*
X35400000Y-65700000D02*
X35800000Y-65700000D01*
X37900000Y-65700000D02*
X38300000Y-65700000D01*
X68400000Y-65700000D02*
X68800000Y-65700000D01*
X60800000Y-65700000D02*
X61200000Y-65700000D01*
X63300000Y-65700000D02*
X63700000Y-65700000D01*
X43000000Y-65700000D02*
X43400000Y-65700000D01*
X70900000Y-86700000D02*
X71300000Y-86700000D01*
X27700000Y-65700000D02*
X28100000Y-65700000D01*
X30300000Y-65700000D02*
X30700000Y-65700000D01*
X40400000Y-86700000D02*
X40800000Y-86700000D01*
X37900000Y-86700000D02*
X38300000Y-86700000D01*
X60800000Y-86700000D02*
X61200000Y-86700000D01*
X76300000Y-79900000D02*
X76300000Y-86700000D01*
X76300000Y-77700000D02*
X76300000Y-77300000D01*
X35400000Y-86700000D02*
X35800000Y-86700000D01*
X48100000Y-65700000D02*
X48500000Y-65700000D01*
X55700000Y-65700000D02*
X56100000Y-65700000D01*
X30300000Y-86700000D02*
X30700000Y-86700000D01*
X55700000Y-86700000D02*
X56100000Y-86700000D01*
X65900000Y-86700000D02*
X66300000Y-86700000D01*
%TD*%
M02*
