%TF.GenerationSoftware,KiCad,Pcbnew,(6.0.11)*%
%TF.CreationDate,2023-04-01T22:46:31+02:00*%
%TF.ProjectId,thermostat,74686572-6d6f-4737-9461-742e6b696361,v01*%
%TF.SameCoordinates,Original*%
%TF.FileFunction,Copper,L1,Top*%
%TF.FilePolarity,Positive*%
%FSLAX46Y46*%
G04 Gerber Fmt 4.6, Leading zero omitted, Abs format (unit mm)*
G04 Created by KiCad (PCBNEW (6.0.11)) date 2023-04-01 22:46:31*
%MOMM*%
%LPD*%
G01*
G04 APERTURE LIST*
%TA.AperFunction,ComponentPad*%
%ADD10O,1.600000X2.000000*%
%TD*%
%TA.AperFunction,ComponentPad*%
%ADD11C,1.238000*%
%TD*%
%TA.AperFunction,ComponentPad*%
%ADD12R,1.238000X1.238000*%
%TD*%
%TA.AperFunction,ComponentPad*%
%ADD13C,1.422400*%
%TD*%
%TA.AperFunction,ComponentPad*%
%ADD14C,1.600000*%
%TD*%
%TA.AperFunction,ComponentPad*%
%ADD15O,1.600000X1.600000*%
%TD*%
%TA.AperFunction,ComponentPad*%
%ADD16O,1.100000X2.200000*%
%TD*%
%TA.AperFunction,ComponentPad*%
%ADD17R,1.600000X1.600000*%
%TD*%
%TA.AperFunction,ComponentPad*%
%ADD18R,1.980000X1.980000*%
%TD*%
%TA.AperFunction,ComponentPad*%
%ADD19C,1.980000*%
%TD*%
%TA.AperFunction,ComponentPad*%
%ADD20C,1.935000*%
%TD*%
%TA.AperFunction,ComponentPad*%
%ADD21R,1.524000X1.524000*%
%TD*%
%TA.AperFunction,ComponentPad*%
%ADD22C,1.524000*%
%TD*%
%TA.AperFunction,ComponentPad*%
%ADD23C,1.950000*%
%TD*%
%TA.AperFunction,SMDPad,CuDef*%
%ADD24R,1.700000X3.500000*%
%TD*%
%TA.AperFunction,ComponentPad*%
%ADD25O,1.700000X1.700000*%
%TD*%
%TA.AperFunction,ComponentPad*%
%ADD26R,1.700000X1.700000*%
%TD*%
%TA.AperFunction,Conductor*%
%ADD27C,0.254000*%
%TD*%
%TA.AperFunction,Conductor*%
%ADD28C,0.762000*%
%TD*%
G04 APERTURE END LIST*
D10*
%TO.P,Brd1,1,VCC*%
%TO.N,Net-(A1-Pad40)*%
X60008000Y-55812000D03*
%TO.P,Brd1,2,GND*%
%TO.N,GND*%
X57468000Y-55812000D03*
%TO.P,Brd1,3,SCL*%
%TO.N,Net-(A1-Pad2)*%
X54928000Y-55812000D03*
%TO.P,Brd1,4,SDA*%
%TO.N,Net-(A1-Pad1)*%
X52388000Y-55812000D03*
%TD*%
D11*
%TO.P,D1,A*%
%TO.N,Net-(D1-PadA)*%
X93390000Y-27686000D03*
D12*
%TO.P,D1,C*%
%TO.N,/MicroUSB connector/VBUS*%
X101682000Y-27686000D03*
%TD*%
D13*
%TO.P,T1,B*%
%TO.N,Net-(R3-Pad2)*%
X90677993Y-33528000D03*
%TO.P,T1,C*%
%TO.N,Net-(K1-PadA2)*%
X90677993Y-30988000D03*
%TO.P,T1,E*%
%TO.N,GND2*%
X90677993Y-36068000D03*
%TD*%
D14*
%TO.P,R2,1*%
%TO.N,Net-(A1-Pad36)*%
X76454000Y-42418000D03*
D15*
%TO.P,R2,2*%
%TO.N,Net-(R2-Pad2)*%
X76454000Y-52578000D03*
%TD*%
D16*
%TO.P,U1,1,GND*%
%TO.N,GND*%
X77478000Y-33766000D03*
%TO.P,U1,2,DQ*%
%TO.N,Net-(A1-Pad27)*%
X79248000Y-33766000D03*
%TO.P,U1,3,VDD*%
%TO.N,Net-(A1-Pad40)*%
X81018000Y-33766000D03*
%TD*%
D17*
%TO.P,U2,1*%
%TO.N,Net-(R2-Pad2)*%
X89149000Y-51298000D03*
D15*
%TO.P,U2,2*%
%TO.N,Net-(A1-Pad24)*%
X91689000Y-51298000D03*
%TO.P,U2,3*%
%TO.N,Net-(R3-Pad1)*%
X91689000Y-43678000D03*
%TO.P,U2,4*%
%TO.N,/MicroUSB connector/VBUS*%
X89149000Y-43678000D03*
%TD*%
D18*
%TO.P,K1,A1*%
%TO.N,Net-(J6-Pad5)*%
X96170000Y-60702000D03*
D19*
%TO.P,K1,A2*%
%TO.N,Net-(K1-PadA2)*%
X84170000Y-60702000D03*
D20*
%TO.P,K1,COM*%
%TO.N,Net-(K1-PadCOM)*%
X90170000Y-58702000D03*
D19*
%TO.P,K1,NC*%
%TO.N,Net-(K1-PadNC)*%
X96170000Y-72902000D03*
%TO.P,K1,NO*%
%TO.N,Net-(K1-PadNO)*%
X84170000Y-72902000D03*
%TD*%
D21*
%TO.P,J3,1,VBUS*%
%TO.N,/MicroUSB connector/VBUS*%
X39076000Y-36750000D03*
D22*
%TO.P,J3,2,D-*%
%TO.N,/MicroUSB connector/D-*%
X39076000Y-39290000D03*
%TO.P,J3,3,D+*%
%TO.N,/MicroUSB connector/D+*%
X39076000Y-41830000D03*
%TO.P,J3,4,ID*%
%TO.N,/MicroUSB connector/ID*%
X39076000Y-44370000D03*
%TO.P,J3,5,GND*%
%TO.N,GND2*%
X39076000Y-46910000D03*
D21*
%TO.P,J3,6,Shield*%
%TO.N,unconnected-(J3-Pad6)*%
X30326000Y-36530000D03*
%TO.P,J3,7*%
%TO.N,N/C*%
X30326000Y-47130000D03*
%TD*%
D14*
%TO.P,R1,1*%
%TO.N,Net-(A1-Pad40)*%
X83566000Y-40386000D03*
D15*
%TO.P,R1,2*%
%TO.N,Net-(A1-Pad27)*%
X83566000Y-50546000D03*
%TD*%
D14*
%TO.P,R3,1*%
%TO.N,Net-(R3-Pad1)*%
X105156000Y-43688000D03*
D15*
%TO.P,R3,2*%
%TO.N,Net-(R3-Pad2)*%
X105156000Y-33528000D03*
%TD*%
D23*
%TO.P,J1,1*%
%TO.N,Net-(K1-PadNO)*%
X98298000Y-88590000D03*
%TO.P,J1,2*%
%TO.N,Net-(K1-PadCOM)*%
X98298000Y-85090000D03*
%TO.P,J1,3*%
%TO.N,Net-(K1-PadNC)*%
X98298000Y-81590000D03*
%TD*%
D24*
%TO.P,A1,1,GPIO0*%
%TO.N,Net-(A1-Pad1)*%
X26670000Y-85990000D03*
D25*
X26670000Y-85090000D03*
D24*
%TO.P,A1,2,GPIO1*%
%TO.N,Net-(A1-Pad2)*%
X29210000Y-85990000D03*
D25*
X29210000Y-85090000D03*
D24*
%TO.P,A1,3,GND*%
%TO.N,GND*%
X31750000Y-85990000D03*
D26*
X31750000Y-85090000D03*
D24*
%TO.P,A1,4,GPIO2*%
%TO.N,unconnected-(A1-Pad4)*%
X34290000Y-85990000D03*
D25*
X34290000Y-85090000D03*
%TO.P,A1,5,GPIO3*%
%TO.N,unconnected-(A1-Pad5)*%
X36830000Y-85090000D03*
D24*
X36830000Y-85990000D03*
D25*
%TO.P,A1,6,GPIO4*%
%TO.N,unconnected-(A1-Pad6)*%
X39370000Y-85090000D03*
D24*
X39370000Y-85990000D03*
D25*
%TO.P,A1,7,GPIO5*%
%TO.N,unconnected-(A1-Pad7)*%
X41910000Y-85090000D03*
D24*
X41910000Y-85990000D03*
%TO.P,A1,8,GND*%
%TO.N,GND*%
X44450000Y-85990000D03*
D26*
X44450000Y-85090000D03*
D25*
%TO.P,A1,9,GPIO6*%
%TO.N,unconnected-(A1-Pad9)*%
X46990000Y-85090000D03*
D24*
X46990000Y-85990000D03*
D25*
%TO.P,A1,10,GPIO7*%
%TO.N,unconnected-(A1-Pad10)*%
X49530000Y-85090000D03*
D24*
X49530000Y-85990000D03*
%TO.P,A1,11,GPIO8*%
%TO.N,unconnected-(A1-Pad11)*%
X52070000Y-85990000D03*
D25*
X52070000Y-85090000D03*
%TO.P,A1,12,GPIO9*%
%TO.N,unconnected-(A1-Pad12)*%
X54610000Y-85090000D03*
D24*
X54610000Y-85990000D03*
%TO.P,A1,13,GND*%
%TO.N,GND*%
X57150000Y-85990000D03*
D26*
X57150000Y-85090000D03*
D25*
%TO.P,A1,14,GPIO10*%
%TO.N,unconnected-(A1-Pad14)*%
X59690000Y-85090000D03*
D24*
X59690000Y-85990000D03*
%TO.P,A1,15,GPIO11*%
%TO.N,unconnected-(A1-Pad15)*%
X62230000Y-85990000D03*
D25*
X62230000Y-85090000D03*
D24*
%TO.P,A1,16,GPIO12*%
%TO.N,unconnected-(A1-Pad16)*%
X64770000Y-85990000D03*
D25*
X64770000Y-85090000D03*
%TO.P,A1,17,GPIO13*%
%TO.N,unconnected-(A1-Pad17)*%
X67310000Y-85090000D03*
D24*
X67310000Y-85990000D03*
D26*
%TO.P,A1,18,GND*%
%TO.N,GND*%
X69850000Y-85090000D03*
D24*
X69850000Y-85990000D03*
%TO.P,A1,19,GPIO14*%
%TO.N,unconnected-(A1-Pad19)*%
X72390000Y-85990000D03*
D25*
X72390000Y-85090000D03*
%TO.P,A1,20,GPIO15*%
%TO.N,unconnected-(A1-Pad20)*%
X74930000Y-85090000D03*
D24*
X74930000Y-85990000D03*
D25*
%TO.P,A1,21,GPIO16*%
%TO.N,unconnected-(A1-Pad21)*%
X74930000Y-67310000D03*
D24*
X74930000Y-66410000D03*
%TO.P,A1,22,GPIO17*%
%TO.N,unconnected-(A1-Pad22)*%
X72390000Y-66410000D03*
D25*
X72390000Y-67310000D03*
D26*
%TO.P,A1,23,GND*%
%TO.N,GND*%
X69850000Y-67310000D03*
D24*
X69850000Y-66410000D03*
D25*
%TO.P,A1,24,GPIO18*%
%TO.N,Net-(A1-Pad24)*%
X67310000Y-67310000D03*
D24*
X67310000Y-66410000D03*
%TO.P,A1,25,GPIO19*%
%TO.N,unconnected-(A1-Pad25)*%
X64770000Y-66410000D03*
D25*
X64770000Y-67310000D03*
%TO.P,A1,26,GPIO20*%
%TO.N,unconnected-(A1-Pad26)*%
X62230000Y-67310000D03*
D24*
X62230000Y-66410000D03*
%TO.P,A1,27,GPIO21*%
%TO.N,Net-(A1-Pad27)*%
X59690000Y-66410000D03*
D25*
X59690000Y-67310000D03*
D24*
%TO.P,A1,28,GND*%
%TO.N,GND*%
X57150000Y-66410000D03*
D26*
X57150000Y-67310000D03*
D24*
%TO.P,A1,29,GPIO22*%
%TO.N,unconnected-(A1-Pad29)*%
X54610000Y-66410000D03*
D25*
X54610000Y-67310000D03*
%TO.P,A1,30,RUN*%
%TO.N,unconnected-(A1-Pad30)*%
X52070000Y-67310000D03*
D24*
X52070000Y-66410000D03*
%TO.P,A1,31,GPIO26_ADC0*%
%TO.N,unconnected-(A1-Pad31)*%
X49530000Y-66410000D03*
D25*
X49530000Y-67310000D03*
%TO.P,A1,32,GPIO27_ADC1*%
%TO.N,unconnected-(A1-Pad32)*%
X46990000Y-67310000D03*
D24*
X46990000Y-66410000D03*
%TO.P,A1,33,AGND*%
%TO.N,unconnected-(A1-Pad33)*%
X44450000Y-66410000D03*
D26*
X44450000Y-67310000D03*
D24*
%TO.P,A1,34,GPIO28_ADC2*%
%TO.N,unconnected-(A1-Pad34)*%
X41910000Y-66410000D03*
D25*
X41910000Y-67310000D03*
D24*
%TO.P,A1,35,ADC_VREF*%
%TO.N,unconnected-(A1-Pad35)*%
X39370000Y-66410000D03*
D25*
X39370000Y-67310000D03*
%TO.P,A1,36,3V3*%
%TO.N,Net-(A1-Pad36)*%
X36830000Y-67310000D03*
D24*
X36830000Y-66410000D03*
D25*
%TO.P,A1,37,3V3_EN*%
%TO.N,unconnected-(A1-Pad37)*%
X34290000Y-67310000D03*
D24*
X34290000Y-66410000D03*
%TO.P,A1,38,GND*%
%TO.N,GND*%
X31750000Y-66410000D03*
D26*
X31750000Y-67310000D03*
D24*
%TO.P,A1,39,VSYS*%
%TO.N,unconnected-(A1-Pad39)*%
X29210000Y-66410000D03*
D25*
X29210000Y-67310000D03*
%TO.P,A1,40,VBUS*%
%TO.N,Net-(A1-Pad40)*%
X26670000Y-67310000D03*
D24*
X26670000Y-66410000D03*
D25*
%TO.P,A1,41,SWCLK*%
%TO.N,unconnected-(A1-Pad41)*%
X56400000Y-75615900D03*
D26*
%TO.P,A1,42,SWGND*%
%TO.N,unconnected-(A1-Pad42)*%
X56400000Y-73075900D03*
D25*
%TO.P,A1,43,SWDIO*%
%TO.N,unconnected-(A1-Pad43)*%
X56400000Y-70535900D03*
%TD*%
D27*
%TO.N,GND*%
X57468000Y-55816000D02*
X57468000Y-55812000D01*
%TO.N,Net-(A1-Pad24)*%
X82804000Y-55118000D02*
X76934000Y-60988000D01*
X91689000Y-51298000D02*
X87869000Y-55118000D01*
X67310000Y-67310000D02*
X67310000Y-65842000D01*
X76934000Y-60988000D02*
X72164000Y-60988000D01*
X87869000Y-55118000D02*
X82804000Y-55118000D01*
X67310000Y-65842000D02*
X72164000Y-60988000D01*
%TO.N,Net-(A1-Pad40)*%
X57146000Y-58674000D02*
X60008000Y-55812000D01*
X60008000Y-55812000D02*
X60008000Y-45148000D01*
X26670000Y-61976000D02*
X29972000Y-58674000D01*
X65278000Y-39878000D02*
X78486000Y-39878000D01*
X81018000Y-37346000D02*
X81018000Y-33766000D01*
X60008000Y-45148000D02*
X65278000Y-39878000D01*
X81018000Y-37346000D02*
X81018000Y-37838000D01*
X29972000Y-58674000D02*
X57146000Y-58674000D01*
X81018000Y-37838000D02*
X83566000Y-40386000D01*
X78486000Y-39878000D02*
X81018000Y-37346000D01*
X26670000Y-67310000D02*
X26670000Y-61976000D01*
%TO.N,Net-(A1-Pad27)*%
X83566000Y-52324000D02*
X76962000Y-58928000D01*
X65278000Y-58928000D02*
X59690000Y-64516000D01*
X59690000Y-64516000D02*
X59690000Y-67310000D01*
X76962000Y-58928000D02*
X65278000Y-58928000D01*
X83566000Y-50546000D02*
X83566000Y-52324000D01*
%TO.N,Net-(K1-PadA2)*%
X94742000Y-33020000D02*
X93980000Y-32258000D01*
X93390000Y-27686000D02*
X93390000Y-31668000D01*
X94742000Y-51816000D02*
X94742000Y-33020000D01*
X92710000Y-30988000D02*
X90677993Y-30988000D01*
X90170000Y-56388000D02*
X94742000Y-51816000D01*
X93390000Y-31668000D02*
X93980000Y-32258000D01*
X93980000Y-32258000D02*
X92710000Y-30988000D01*
X84170000Y-60702000D02*
X84170000Y-57816000D01*
X85598000Y-56388000D02*
X90170000Y-56388000D01*
X84170000Y-57816000D02*
X85598000Y-56388000D01*
D28*
%TO.N,Net-(K1-PadCOM)*%
X90170000Y-81280000D02*
X93980000Y-85090000D01*
X90170000Y-58702000D02*
X90170000Y-81280000D01*
X93980000Y-85090000D02*
X98298000Y-85090000D01*
%TO.N,Net-(K1-PadNO)*%
X88336000Y-88590000D02*
X98298000Y-88590000D01*
X84170000Y-84424000D02*
X84170000Y-72902000D01*
X88336000Y-88590000D02*
X84170000Y-84424000D01*
%TO.N,Net-(K1-PadNC)*%
X96170000Y-79462000D02*
X98298000Y-81590000D01*
X96170000Y-72902000D02*
X96170000Y-79462000D01*
D27*
%TO.N,/MicroUSB connector/VBUS*%
X101682000Y-27260000D02*
X100330000Y-25908000D01*
X89149000Y-40381000D02*
X84074000Y-35306000D01*
X88900000Y-25908000D02*
X84074000Y-30734000D01*
X101682000Y-27686000D02*
X101682000Y-27260000D01*
X100330000Y-25908000D02*
X88900000Y-25908000D01*
X96170000Y-52420000D02*
X101682000Y-46908000D01*
X84074000Y-30480000D02*
X80264000Y-26670000D01*
X101682000Y-46908000D02*
X101682000Y-27686000D01*
X89149000Y-43678000D02*
X89149000Y-40381000D01*
X40894000Y-26670000D02*
X39076000Y-28488000D01*
X80264000Y-26670000D02*
X40894000Y-26670000D01*
X39076000Y-32218000D02*
X39076000Y-36750000D01*
X84074000Y-30734000D02*
X84074000Y-30480000D01*
X39076000Y-28488000D02*
X39076000Y-32218000D01*
X96170000Y-60702000D02*
X96170000Y-52420000D01*
X84074000Y-35306000D02*
X84074000Y-30734000D01*
%TO.N,Net-(A1-Pad36)*%
X38608000Y-61214000D02*
X36830000Y-62992000D01*
X62992000Y-44958000D02*
X62992000Y-58674000D01*
X60452000Y-61214000D02*
X38608000Y-61214000D01*
X76454000Y-42418000D02*
X65532000Y-42418000D01*
X65532000Y-42418000D02*
X62992000Y-44958000D01*
X36830000Y-62992000D02*
X36830000Y-67310000D01*
X62992000Y-58674000D02*
X60452000Y-61214000D01*
%TD*%
M02*
