<svg id="Layer_1" data-name="Layer 1" xmlns="http://www.w3.org/2000/svg" viewBox="0 0 122.88 122.88"><defs><style>.cls-1{fill:#01a437;}.cls-1,.cls-3{fill-rule:evenodd;}.cls-2{fill:#fff;}.cls-3{fill:#42c76e;}</style></defs><title>turn-on</title><path class="cls-1" d="M61.44,0A61.44,61.44,0,1,1,0,61.44,61.44,61.44,0,0,1,61.44,0Z"/><path class="cls-2" d="M81,44.75a7.08,7.08,0,0,1,10.71-9.27,40,40,0,1,1-60.87.39A7.07,7.07,0,0,1,41.67,45,25.85,25.85,0,1,0,81,44.75ZM68.54,47.92a7.1,7.1,0,1,1-14.2,0V26.74a7.1,7.1,0,1,1,14.2,0V47.92Z"/><path class="cls-3" d="M61.44,2.23a59.15,59.15,0,0,1,59.15,59.15c0,.77,0,1.54,0,2.31a59.14,59.14,0,0,0-118.2,0c0-.77,0-1.54,0-2.31A59.15,59.15,0,0,1,61.44,2.23Z"/></svg>